<?xml version="1.0" encoding="utf-8"?>
<!-- Generator: Adobe Illustrator 27.5.0, SVG Export Plug-In . SVG Version: 6.00 Build 0)  -->
<svg version="1.1" xmlns="http://www.w3.org/2000/svg" xmlns:xlink="http://www.w3.org/1999/xlink" x="0px" y="0px"
	 viewBox="0 0 750 500" style="enable-background:new 0 0 750 500;" xml:space="preserve">
<g id="BACKGROUND">
	<rect style="fill:#FFFFFF;" width="750" height="500"/>
</g>
<g id="OBJECT">
	<g>
		<g style="opacity:0.4;">
			<path style="fill:#CFEFFE;" d="M289.254,154.98V88.15l-32.444,49.539v82.375h-20.903V102.009h-5.315l-15.135-19.757
				l-15.217,19.757h-5.227v159.316h-41.793l0,0h-35.114V348.1h221.833V154.98H289.254z M230.591,197.339h-30.264v-4.318h30.264
				V197.339z M230.591,188.72h-30.264v-4.318h30.264V188.72z M230.591,180.1h-30.264v-4.31h30.264V180.1z M230.591,171.481h-30.264
				v-4.31h30.264V171.481z M230.591,162.87h-30.264v-4.319h30.264V162.87z M230.591,154.251h-30.264v-4.318h30.264V154.251z
				 M230.591,145.632h-30.264v-4.31h30.264V145.632z M230.591,137.013h-30.264v-4.31h30.264V137.013z M230.591,128.393h-30.264
				v-4.31h30.264V128.393z M230.591,119.783h-30.264v-4.318h30.264V119.783z M230.591,111.164h-30.264v-4.31h30.264V111.164z
				 M285.138,321.089h-3.141V109.004l3.141-4.81V321.089z"/>
			<path style="fill:#CFEFFE;" d="M518.363,154.98V88.15l-32.444,49.539v82.375h-20.903V102.009H459.7l-15.135-19.757
				l-15.217,19.757h-5.227v159.316h-41.793l0,0h-35.115V348.1h221.833V154.98H518.363z M459.7,197.339h-30.264v-4.318H459.7V197.339
				z M459.7,188.72h-30.264v-4.318H459.7V188.72z M459.7,180.1h-30.264v-4.31H459.7V180.1z M459.7,171.481h-30.264v-4.31H459.7
				V171.481z M459.7,162.87h-30.264v-4.319H459.7V162.87z M459.7,154.251h-30.264v-4.318H459.7V154.251z M459.7,145.632h-30.264
				v-4.31H459.7V145.632z M459.7,137.013h-30.264v-4.31H459.7V137.013z M459.7,128.393h-30.264v-4.31H459.7V128.393z M459.7,119.783
				h-30.264v-4.318H459.7V119.783z M459.7,111.164h-30.264v-4.31H459.7V111.164z M514.247,321.089h-3.142V109.004l3.142-4.81
				V321.089z"/>
			<path style="fill:#CFEFFE;" d="M435.564,267.246V116.201h-4.873v-15.282h-37.688v15.282h-4.843v189.888h-35.37v-85.994h-51.506
				v112.843h-24.885V130.805h-50.736v155.296h-5.955v-92.443h-9.177l-25.586-18.878v18.878h-5.596v114.17h-12.423V153.217h-12.563
				V98.976h-1.72v54.241H140.08v195.216h327.227v-81.188H435.564z M163.899,252.565H143.17v-3.36h20.729V252.565z M163.899,244.79
				H143.17v-3.36h20.729V244.79z M163.899,237.004H143.17v-3.36h20.729V237.004z M163.899,229.229H143.17v-3.36h20.729V229.229z
				 M163.899,221.454H143.17v-3.36h20.729V221.454z M163.899,213.668H143.17v-3.36h20.729V213.668z M163.899,205.893H143.17v-3.36
				h20.729V205.893z M163.899,198.117H143.17v-3.36h20.729V198.117z M163.899,190.331H143.17v-3.36h20.729V190.331z
				 M163.899,182.556H143.17v-3.36h20.729V182.556z M163.899,174.781H143.17v-3.36h20.729V174.781z M163.899,166.995H143.17v-3.361
				h20.729V166.995z M163.899,159.22H143.17v-3.36h20.729V159.22z M236.592,205.523h-6.173v-8.612h6.173V205.523z M236.592,191.158
				h-6.173v-8.623h6.173V191.158z M236.592,176.782h-6.173v-8.612h6.173V176.782z M236.592,162.417h-6.173v-8.624h6.173V162.417z
				 M236.592,148.041h-6.173v-8.624h6.173V148.041z M248.315,205.523h-6.165v-8.612h6.165V205.523z M248.315,191.158h-6.165v-8.623
				h6.165V191.158z M248.315,176.782h-6.165v-8.612h6.165V176.782z M248.315,162.417h-6.165v-8.624h6.165V162.417z M248.315,148.041
				h-6.165v-8.624h6.165V148.041z M260.045,205.523h-6.172v-8.612h6.172V205.523z M260.045,191.158h-6.172v-8.623h6.172V191.158z
				 M260.045,176.782h-6.172v-8.612h6.172V176.782z M260.045,162.417h-6.172v-8.624h6.172V162.417z M260.045,148.041h-6.172v-8.624
				h6.172V148.041z M271.768,205.523h-6.165v-8.612h6.165V205.523z M271.768,191.158h-6.165v-8.623h6.165V191.158z M271.768,176.782
				h-6.165v-8.612h6.165V176.782z M271.768,162.417h-6.165v-8.624h6.165V162.417z M440.422,338.331h-6.414v-8.96h6.414V338.331z
				 M440.422,320.389h-6.414v-8.96h6.414V320.389z M440.422,302.446h-6.414v-8.96h6.414V302.446z M440.422,284.503h-6.414v-8.96
				h6.414V284.503z M452.323,338.331h-6.414v-8.96h6.414V338.331z M452.323,320.389h-6.414v-8.96h6.414V320.389z M452.323,302.446
				h-6.414v-8.96h6.414V302.446z M452.323,284.503h-6.414v-8.96h6.414V284.503z M464.225,338.331h-6.422v-8.96h6.422V338.331z
				 M464.225,320.389h-6.422v-8.96h6.422V320.389z M464.225,302.446h-6.422v-8.96h6.422V302.446z M464.225,284.503h-6.422v-8.96
				h6.422V284.503z"/>
			<path style="fill:#CFEFFE;" d="M586.071,251.198V116.201h-4.873v-15.282H543.51v15.282h-4.843v189.888h-35.37v-85.994h-51.506
				v112.843h-24.885V130.805H376.17v155.296h-5.955v-92.443h-9.177l-25.586-18.878v18.878h-5.597v114.17h-12.423V153.217H304.87
				V98.976h-1.72v54.241h-12.563v195.216h327.227v-97.236H586.071z M314.405,252.565h-20.729v-3.36h20.729V252.565z M314.405,244.79
				h-20.729v-3.36h20.729V244.79z M314.405,237.004h-20.729v-3.36h20.729V237.004z M314.405,229.229h-20.729v-3.36h20.729V229.229z
				 M314.405,221.454h-20.729v-3.36h20.729V221.454z M314.405,213.668h-20.729v-3.36h20.729V213.668z M314.405,205.893h-20.729
				v-3.36h20.729V205.893z M314.405,198.117h-20.729v-3.36h20.729V198.117z M314.405,190.331h-20.729v-3.36h20.729V190.331z
				 M314.405,182.556h-20.729v-3.36h20.729V182.556z M314.405,174.781h-20.729v-3.36h20.729V174.781z M314.405,166.995h-20.729
				v-3.361h20.729V166.995z M314.405,159.22h-20.729v-3.36h20.729V159.22z M387.099,205.523h-6.173v-8.612h6.173V205.523z
				 M387.099,191.158h-6.173v-8.623h6.173V191.158z M387.099,176.782h-6.173v-8.612h6.173V176.782z M387.099,162.417h-6.173v-8.624
				h6.173V162.417z M387.099,148.041h-6.173v-8.624h6.173V148.041z M398.821,205.523h-6.165v-8.612h6.165V205.523z M398.821,191.158
				h-6.165v-8.623h6.165V191.158z M398.821,176.782h-6.165v-8.612h6.165V176.782z M398.821,162.417h-6.165v-8.624h6.165V162.417z
				 M398.821,148.041h-6.165v-8.624h6.165V148.041z M410.552,205.523h-6.173v-8.612h6.173V205.523z M410.552,191.158h-6.173v-8.623
				h6.173V191.158z M410.552,176.782h-6.173v-8.612h6.173V176.782z M410.552,162.417h-6.173v-8.624h6.173V162.417z M410.552,148.041
				h-6.173v-8.624h6.173V148.041z M422.274,205.523h-6.165v-8.612h6.165V205.523z M422.274,191.158h-6.165v-8.623h6.165V191.158z
				 M422.274,176.782h-6.165v-8.612h6.165V176.782z M422.274,162.417h-6.165v-8.624h6.165V162.417z M594.181,314.546h-5.537v-7.736
				h5.537V314.546z M594.181,299.056h-5.537v-7.736h5.537V299.056z M594.181,283.565h-5.537v-7.736h5.537V283.565z M594.181,268.074
				h-5.537v-7.736h5.537V268.074z M604.456,314.546h-5.537v-7.736h5.537V314.546z M604.456,299.056h-5.537v-7.736h5.537V299.056z
				 M604.456,283.565h-5.537v-7.736h5.537V283.565z M604.456,268.074h-5.537v-7.736h5.537V268.074z M614.731,314.546h-5.544v-7.736
				h5.544V314.546z M614.731,299.056h-5.544v-7.736h5.544V299.056z M614.731,283.565h-5.544v-7.736h5.544V283.565z M614.731,268.074
				h-5.544v-7.736h5.544V268.074z"/>
			<rect x="617.814" y="280.023" style="fill:#CFEFFE;" width="21.976" height="103.921"/>
		</g>
		<g>
			<g>
				<path style="fill:#B0EEFF;" d="M151.79,352.921c-2.919-2.365-5.94-4.86-7.473-8.29c-1.42-3.178-3.205-6.611-3.833-10.035
					c-0.629-3.426-2.004-6.685-3.833-9.649c-5.735-9.293-9.579-6.714-10.85-5.413c-1.249,1.279-1.388,3.178-0.541,5.865
					c0.682,2.161,5.686,11.635,1.909,11.301c-4.371-0.386-7.925-10.868-9.744-14.136c-2.72-4.889-6.811-9.695-12.066-11.904
					c-2.59-1.089-5.936-1.376-7.902,0.631c-1.177,1.201-1.583,2.977-1.564,4.659c0.056,5.066,3.284,9.211,6.541,12.784
					c1.362,1.494,10.267,7.48,5.003,8.453c-1.257,0.232-13.935-4.037-12.057,4.367c0.661,2.959,4.865,4.749,11.192,6.609
					c3.951,1.162,17.696,2.982,18.219,6.329c0.524,3.347-7.704,0.614-4.873,6.19c1.586,3.124,6.721,3.962,10.076,4.166
					c1.596,0.097,3.206-0.124,4.792,0.077c1.881,0.238,4.524,1.492,3.975,3.817c-0.24,1.016-1.124,1.793-1.33,2.816
					c-0.209,1.039,0.355,2.119,1.183,2.781c0.827,0.662,1.877,0.976,2.913,1.198c6.645,1.419,13.678-0.457,19.521-3.925
					c5.843-3.468,10.65-8.423,15.103-13.555"/>
			</g>
			<g style="opacity:0.25;">
				
					<path style="fill:none;stroke:#FFFFFF;stroke-width:0.8353;stroke-linecap:round;stroke-linejoin:round;stroke-miterlimit:10;" d="
					M102.488,315.659c0,0,18.705,31.882,47.015,45.869"/>
				
					<path style="fill:none;stroke:#FFFFFF;stroke-width:0.8353;stroke-linecap:round;stroke-linejoin:round;stroke-miterlimit:10;" d="
					M100.994,341.566c0,0,14.801,4.949,24.802,2.878"/>
				
					<path style="fill:none;stroke:#FFFFFF;stroke-width:0.8353;stroke-linecap:round;stroke-linejoin:round;stroke-miterlimit:10;" d="
					M129.064,323.18c2.511,5.165,8.299,20.014,5.77,29.06"/>
				
					<path style="fill:none;stroke:#FFFFFF;stroke-width:0.8353;stroke-linecap:round;stroke-linejoin:round;stroke-miterlimit:10;" d="
					M124.592,360.291c0,0,5.95,2.327,20.611-1.062"/>
				
					<path style="fill:none;stroke:#FFFFFF;stroke-width:0.8353;stroke-linecap:round;stroke-linejoin:round;stroke-miterlimit:10;" d="
					M140.531,371.526c0,0,7.731-1.294,12.858-7.39"/>
			</g>
		</g>
		<g>
			<g>
				
					<rect x="135.227" y="319.074" transform="matrix(-1 -1.224647e-16 1.224647e-16 -1 278.0469 711.8727)" style="fill:#282228;" width="7.593" height="73.724"/>
				
					<rect x="137.481" y="319.074" transform="matrix(-1 -1.224647e-16 1.224647e-16 -1 282.5554 711.8727)" style="fill:#0E60D8;" width="7.593" height="73.724"/>
			</g>
			<path style="fill:#1A6CF3;" d="M176.907,262.622L176.907,262.622c11.692,0,21.169,9.478,21.169,21.169v33.913
				c0,4.013-3.254,7.267-7.267,7.267h-7.267h-27.805h-50.027v-62.35H176.907z"/>
			<path style="opacity:0.35;fill:#5275A0;" d="M105.713,321.389v3.583h85.095c4.013,0,7.267-3.254,7.267-7.267v-3.583
				c0,4.013-3.255,7.267-7.267,7.267H105.713z"/>
			<path style="fill:#282228;" d="M90.123,324.972h30.438c3.49,0,6.319-2.829,6.319-6.319v-34.861
				c0-11.691-9.478-21.169-21.169-21.169l0,0c-11.691,0-21.169,9.478-21.169,21.169v35.598
				C84.541,322.473,87.041,324.972,90.123,324.972z"/>
			
				<rect x="94.731" y="280.422" transform="matrix(-1 -1.224647e-16 1.224647e-16 -1 211.4215 564.7929)" style="fill:#1A6CF3;" width="21.959" height="3.95"/>
			<path style="fill:#282228;" d="M143.164,285.793v-31.825h5.553c0.737,0,1.334-0.597,1.334-1.334v-2.713
				c0-0.737-0.597-1.334-1.334-1.334h-7.131c-0.793,0-1.435,0.643-1.435,1.435v35.77H143.164z"/>
			<path style="fill:#282228;" d="M136.728,285.108c0,2.821,2.287,5.108,5.108,5.108c2.821,0,5.108-2.287,5.108-5.108
				S144.657,280,141.836,280C139.015,280,136.728,282.287,136.728,285.108z"/>
			<path style="fill:#FFFFFF;" d="M139.255,285.108c0,1.425,1.155,2.58,2.58,2.58c1.425,0,2.58-1.155,2.58-2.58
				s-1.155-2.58-2.58-2.58C140.411,282.528,139.255,283.683,139.255,285.108z"/>
		</g>
		<g>
			<g>
				<path style="fill:#B0EEFF;" d="M188.778,330.747c0.744-3.682,1.555-7.516,3.885-10.463c2.159-2.731,4.375-5.903,7.118-8.046
					c2.745-2.144,4.996-4.872,6.776-7.867c5.579-9.387,1.513-11.6-0.229-12.123c-1.712-0.514-3.46,0.242-5.448,2.237
					c-1.599,1.605-7.678,10.429-9.131,6.927c-1.682-4.053,5.961-12.058,8.015-15.184c3.073-4.676,5.437-10.527,4.961-16.208
					c-0.235-2.8-1.53-5.897-4.22-6.711c-1.61-0.487-3.372-0.023-4.854,0.772c-4.464,2.396-6.643,7.177-8.3,11.719
					c-0.693,1.899-1.874,12.563-5.174,8.349c-0.788-1.006-2.878-14.22-9.455-8.663c-2.316,1.957-1.955,6.511-0.673,12.98
					c0.801,4.04,5.554,17.064,2.83,19.079c-2.724,2.014-4.112-6.543-7.743-1.451c-2.034,2.853-0.398,7.792,0.975,10.859
					c0.653,1.459,1.595,2.784,2.152,4.283c0.66,1.778,0.773,4.7-1.542,5.291c-1.011,0.258-2.11-0.165-3.112,0.126
					c-1.018,0.296-1.713,1.296-1.917,2.336c-0.204,1.04,0.004,2.116,0.288,3.137c1.82,6.546,6.74,11.911,12.52,15.482
					c5.78,3.572,12.398,5.537,19.009,7.107"/>
			</g>
			<g style="opacity:0.25;">
				
					<path style="fill:none;stroke:#FFFFFF;stroke-width:0.8353;stroke-linecap:round;stroke-linejoin:round;stroke-miterlimit:10;" d="
					M198.965,269.793c0,0-19.591,31.345-18.874,62.914"/>
				
					<path style="fill:none;stroke:#FFFFFF;stroke-width:0.8353;stroke-linecap:round;stroke-linejoin:round;stroke-miterlimit:10;" d="
					M175.312,280.469c0,0,2.469,15.41,8.938,23.314"/>
				
					<path style="fill:none;stroke:#FFFFFF;stroke-width:0.8353;stroke-linecap:round;stroke-linejoin:round;stroke-miterlimit:10;" d="
					M204.61,296.829c-3.414,4.617-13.893,16.625-23.082,18.575"/>
				
					<path style="fill:none;stroke:#FFFFFF;stroke-width:0.8353;stroke-linecap:round;stroke-linejoin:round;stroke-miterlimit:10;" d="
					M169.648,310.057c0,0,0.693,6.351,10.488,17.775"/>
				
					<path style="fill:none;stroke:#FFFFFF;stroke-width:0.8353;stroke-linecap:round;stroke-linejoin:round;stroke-miterlimit:10;" d="
					M167.075,329.386c0,0,4.728,6.252,12.505,7.973"/>
			</g>
		</g>
		<g>
			<path style="fill:#D7F6FF;" d="M181.384,335.803c-1.214-6.877-20.416-49.743-42.642-38.264
				c-13.203,6.819-10.829,31.927,9.794,50.896c-4.047-3.915-8.722-8.354-14.245-9.451c-2.984-0.592-6.635,0.781-8.87,2.845
				c-1.989,1.836-2.573,4.736-2.665,7.441c-0.334,9.838,4.795,19.688,13.047,25.055c-4.561-2.548-8.514-5.74-13.719-6.186
				c-1.692-0.145-4.559,0.823-5.342,2.329c-0.852,1.64-0.792,7.786,9.249,12.376c-40.928-7.762-43.315,9.684-28.604,9.684
				c14.712,0,120.658,0,120.658,0"/>
		</g>
		<g>
			<path style="fill:#B0EEFF;" d="M194.817,359.185c-0.712-4.033-8.14-29.386-21.176-22.653c-7.743,3.999-6.351,18.725,5.744,29.85
				c-2.374-2.296-5.115-4.899-8.354-5.543c-1.75-0.347-3.891,0.458-5.202,1.668c-1.166,1.077-1.509,2.778-1.563,4.364
				c-0.196,5.77,2.812,11.547,7.652,14.694c-2.675-1.495-4.993-3.366-8.046-3.628c-0.992-0.085-2.673,0.483-3.132,1.366
				c-0.5,0.962-0.465,4.566,5.424,7.258c-24.004-4.553-25.404,5.679-16.776,5.679c8.628,0,57.022,0,57.022,0"/>
		</g>
		<g>
			<g>
				<path style="fill:#B0EEFF;" d="M579.326,349.657c4.476-3.128,9.113-6.434,11.688-11.248c2.387-4.461,5.327-9.255,6.592-14.154
					c1.265-4.902,3.594-9.485,6.551-13.594c9.272-12.882,14.58-8.748,16.288-6.73c1.679,1.983,1.686,4.751,0.18,8.559
					c-1.211,3.063-9.443,16.283-3.933,16.188c6.377-0.11,12.609-14.94,15.583-19.491c4.448-6.807,10.873-13.354,18.72-16.016
					c3.867-1.312,8.747-1.383,11.391,1.729c1.583,1.863,1.988,4.48,1.787,6.917c-0.604,7.339-5.71,13.017-10.8,17.861
					c-2.128,2.025-15.655,9.787-8.124,11.739c1.799,0.466,20.62-4.417,17.031,7.573c-1.264,4.222-7.542,6.384-16.907,8.429
					c-5.848,1.277-25.963,2.5-27.066,7.299c-1.104,4.799,11.106,1.684,6.427,9.476c-2.622,4.365-10.153,5.052-15.037,5.002
					c-2.324-0.023-4.635-0.51-6.956-0.382c-2.752,0.152-6.712,1.697-6.156,5.125c0.243,1.497,1.445,2.716,1.638,4.221
					c0.196,1.528-0.733,3.035-2.001,3.91c-1.268,0.875-2.822,1.222-4.347,1.436c-9.78,1.374-19.784-2.071-27.897-7.701
					c-8.114-5.63-14.573-13.309-20.501-21.207"/>
			</g>
			<g style="opacity:0.25;">
				
					<path style="fill:none;stroke:#FFFFFF;stroke-width:1.2141;stroke-linecap:round;stroke-linejoin:round;stroke-miterlimit:10;" d="
					M654.642,300.713c0,0-30.402,44.296-72.888,61.659"/>
				
					<path style="fill:none;stroke:#FFFFFF;stroke-width:1.2141;stroke-linecap:round;stroke-linejoin:round;stroke-miterlimit:10;" d="
					M654.14,338.428c0,0-21.968,5.651-36.255,1.618"/>
				
					<path style="fill:none;stroke:#FFFFFF;stroke-width:1.2141;stroke-linecap:round;stroke-linejoin:round;stroke-miterlimit:10;" d="
					M615.338,308.879c-4.172,7.229-14.093,28.161-11.359,41.538"/>
				
					<path style="fill:none;stroke:#FFFFFF;stroke-width:1.2141;stroke-linecap:round;stroke-linejoin:round;stroke-miterlimit:10;" d="
					M617.998,363.144c0,0-8.866,2.761-29.773-3.662"/>
				
					<path style="fill:none;stroke:#FFFFFF;stroke-width:1.2141;stroke-linecap:round;stroke-linejoin:round;stroke-miterlimit:10;" d="
					M593.733,377.79c0,0-11.075-2.672-17.881-12.039"/>
			</g>
		</g>
		<g>
			<g>
				<path style="fill:#B0EEFF;" d="M518.766,280.68c1.334-4.336,2.683-8.871,1.91-13.342c-0.716-4.142-1.239-8.786-2.914-12.641
					c-1.676-3.858-2.492-8.05-2.654-12.254c-0.508-13.177,5.082-13.181,7.232-12.732c2.113,0.441,3.532,2.251,4.491,5.515
					c0.772,2.625,2.134,15.493,5.695,12.615c4.122-3.331,0.627-16.231,0.249-20.732c-0.565-6.732,0.3-14.305,4.08-20.058
					c1.863-2.835,5.024-5.375,8.346-4.688c1.989,0.412,3.591,1.919,4.705,3.618c3.355,5.116,2.911,11.445,2.051,17.22
					c-0.359,2.415-5.255,14.411,0.676,11.842c1.417-0.613,11.252-13.43,15.027-3.741c1.33,3.412-1.679,8.036-6.769,14.161
					c-3.179,3.825-15.731,14.904-14.002,18.613c1.729,3.708,8.136-4.572,9.052,2.924c0.513,4.199-4.07,8.497-7.295,10.96
					c-1.534,1.172-3.297,2.035-4.752,3.304c-1.726,1.506-3.53,4.541-1.414,6.503c0.924,0.857,2.334,1.041,3.23,1.928
					c0.909,0.901,1.071,2.363,0.687,3.584c-0.384,1.221-1.224,2.243-2.114,3.163c-5.705,5.897-14.019,8.752-22.212,9.21
					c-8.192,0.457-16.348-1.273-24.268-3.418"/>
			</g>
			<g style="opacity:0.25;">
				
					<path style="fill:none;stroke:#FFFFFF;stroke-width:1.0087;stroke-linecap:round;stroke-linejoin:round;stroke-miterlimit:10;" d="
					M543.099,210.129c0,0,2.716,44.555-16.245,77.64"/>
				
					<path style="fill:none;stroke:#FFFFFF;stroke-width:1.0087;stroke-linecap:round;stroke-linejoin:round;stroke-miterlimit:10;" d="
					M562.042,235.094c0,0-11.505,14.927-22.925,19.585"/>
				
					<path style="fill:none;stroke:#FFFFFF;stroke-width:1.0087;stroke-linecap:round;stroke-linejoin:round;stroke-miterlimit:10;" d="
					M521.522,235.563c0.961,6.868,5.157,25.651,13.783,33.017"/>
				
					<path style="fill:none;stroke:#FFFFFF;stroke-width:1.0087;stroke-linecap:round;stroke-linejoin:round;stroke-miterlimit:10;" d="
					M550.993,269.755c0,0-4.397,6.339-21.377,12.814"/>
				
					<path style="fill:none;stroke:#FFFFFF;stroke-width:1.0087;stroke-linecap:round;stroke-linejoin:round;stroke-miterlimit:10;" d="
					M542.58,291.749c0,0-8.621,3.909-17.866,1.25"/>
			</g>
		</g>
		<g>
			<path style="fill:#D7F6FF;" d="M510.809,326.754c1.802-8.406,32.403-65.291,65.389-51.26c19.593,8.335,16.07,39.025-14.535,62.21
				c6.007-4.785,12.943-10.211,21.14-11.552c4.428-0.724,9.847,0.955,13.164,3.477c2.951,2.244,3.819,5.789,3.956,9.095
				c0.495,12.026-7.116,24.064-19.363,30.625c6.769-3.115,12.634-7.016,20.36-7.562c2.51-0.178,6.765,1.006,7.927,2.847
				c1.264,2.005,1.176,9.517-13.725,15.127c60.739-9.488,64.282,11.836,42.449,11.836s-144.289,0-144.289,0"/>
		</g>
		
			<line style="fill:none;stroke:#389FE5;stroke-width:1.6197;stroke-miterlimit:10;" x1="74.422" y1="391.888" x2="675.578" y2="391.888"/>
		<g>
			<g>
				<path style="fill:#F35431;" d="M173.907,174.704l-1.583,0.336l-0.038,0.008c-0.333,0.071-0.659-0.142-0.73-0.475
					c-0.07-0.331,0.14-0.657,0.471-0.729l1.658-0.363c0.335-0.073,0.666,0.139,0.74,0.474c0.073,0.335-0.139,0.666-0.474,0.74
					l-0.004,0.001L173.907,174.704z"/>
				<path style="fill:#F35431;" d="M169.994,175.716c-1.025,0.342-2.035,0.736-3.026,1.174c-0.301,0.133-0.654-0.003-0.787-0.305
					c-0.133-0.3,0.002-0.651,0.301-0.785c1.02-0.458,2.062-0.873,3.123-1.236c0.318-0.108,0.663,0.061,0.772,0.379
					c0.108,0.318-0.061,0.663-0.379,0.771L169.994,175.716z"/>
				<path style="fill:#F35431;" d="M164.77,177.947c-0.962,0.501-1.903,1.042-2.821,1.62c-0.27,0.17-0.626,0.09-0.796-0.18
					c-0.169-0.269-0.09-0.623,0.177-0.794c0.941-0.602,1.906-1.165,2.893-1.688c0.287-0.152,0.643-0.042,0.795,0.245
					c0.152,0.287,0.042,0.643-0.245,0.795L164.77,177.947z"/>
				<path style="fill:#F35431;" d="M159.926,180.933c-0.88,0.635-1.732,1.308-2.55,2.019c-0.233,0.202-0.585,0.177-0.787-0.055
					c-0.201-0.232-0.177-0.582,0.053-0.785c0.84-0.739,1.714-1.438,2.615-2.099c0.254-0.186,0.61-0.131,0.795,0.123
					c0.186,0.254,0.131,0.61-0.123,0.795L159.926,180.933z"/>
				<path style="fill:#F35431;" d="M155.595,184.615c-0.762,0.768-1.485,1.574-2.154,2.421c-0.185,0.233-0.523,0.273-0.757,0.089
					c-0.232-0.184-0.273-0.521-0.091-0.754c0.691-0.886,1.435-1.727,2.219-2.527c0.212-0.217,0.561-0.22,0.777-0.008
					c0.217,0.212,0.22,0.561,0.008,0.777L155.595,184.615z"/>
				<path style="fill:#F35431;" d="M152.032,189.007c-0.579,0.906-1.093,1.852-1.518,2.835c-0.114,0.263-0.42,0.385-0.683,0.271
					c-0.262-0.113-0.383-0.417-0.272-0.68c0.443-1.042,0.977-2.041,1.577-2.994c0.156-0.248,0.484-0.322,0.731-0.166
					c0.248,0.156,0.322,0.484,0.166,0.732L152.032,189.007z"/>
				<path style="fill:#F35431;" d="M149.719,194.107c-0.278,1.029-0.447,2.084-0.488,3.145c-0.011,0.276-0.243,0.491-0.519,0.48
					c-0.275-0.011-0.489-0.241-0.48-0.516c0.036-1.14,0.211-2.274,0.499-3.372c0.072-0.273,0.351-0.436,0.624-0.365
					c0.273,0.072,0.436,0.351,0.365,0.624L149.719,194.107z"/>
				<path style="fill:#F35431;" d="M149.354,199.633c0.151,1.051,0.431,2.083,0.823,3.074c0.098,0.247-0.023,0.526-0.27,0.624
					c-0.246,0.097-0.524-0.022-0.623-0.267c-0.425-1.054-0.734-2.159-0.903-3.287c-0.041-0.269,0.144-0.519,0.413-0.56
					c0.269-0.041,0.519,0.144,0.56,0.413L149.354,199.633z"/>
				<path style="fill:#F35431;" d="M151.234,204.863c0.542,0.924,1.174,1.799,1.868,2.624c0.164,0.195,0.139,0.486-0.056,0.65
					c-0.194,0.163-0.484,0.139-0.648-0.054c-0.729-0.855-1.398-1.767-1.977-2.739c-0.134-0.224-0.06-0.514,0.164-0.648
					c0.224-0.134,0.514-0.06,0.648,0.164L151.234,204.863z"/>
				<path style="fill:#F35431;" d="M154.762,209.256c0.78,0.746,1.615,1.435,2.495,2.061c0.198,0.141,0.245,0.416,0.104,0.614
					c-0.14,0.197-0.414,0.244-0.612,0.106c-0.919-0.644-1.792-1.355-2.61-2.125c-0.182-0.171-0.191-0.458-0.019-0.64
					c0.171-0.182,0.458-0.19,0.64-0.019L154.762,209.256z"/>
				<path style="fill:#F35431;" d="M159.309,212.615c0.943,0.527,1.925,0.985,2.935,1.368c0.217,0.082,0.326,0.325,0.243,0.541
					c-0.082,0.216-0.323,0.325-0.539,0.245c-1.052-0.391-2.075-0.859-3.058-1.399c-0.209-0.115-0.285-0.377-0.171-0.586
					s0.377-0.286,0.586-0.171L159.309,212.615z"/>
				<path style="fill:#F35431;" d="M164.561,214.718c1.047,0.269,2.113,0.459,3.189,0.568c0.219,0.022,0.379,0.218,0.357,0.437
					c-0.022,0.218-0.216,0.378-0.434,0.357c-1.117-0.104-2.225-0.294-3.313-0.565c-0.22-0.055-0.354-0.278-0.299-0.498
					c0.055-0.22,0.278-0.354,0.498-0.299L164.561,214.718z"/>
				<path style="fill:#F35431;" d="M170.178,215.391c1.08-0.017,2.159-0.116,3.214-0.322c0.205-0.04,0.405,0.093,0.445,0.299
					c0.04,0.204-0.093,0.403-0.297,0.445c-1.105,0.224-2.227,0.334-3.348,0.359c-0.215,0.005-0.394-0.166-0.399-0.381
					c-0.005-0.215,0.166-0.394,0.381-0.399L170.178,215.391z"/>
				<path style="fill:#F35431;" d="M175.702,214.401c0.988-0.394,1.915-0.936,2.68-1.654c0.145-0.136,0.372-0.129,0.508,0.016
					c0.135,0.144,0.129,0.37-0.014,0.507c-0.839,0.798-1.844,1.39-2.896,1.819c-0.189,0.077-0.406-0.014-0.483-0.203
					c-0.077-0.189,0.013-0.406,0.203-0.483L175.702,214.401z"/>
				<path style="fill:#F35431;" d="M179.78,210.872c0.466-0.938,0.702-1.986,0.762-3.048c0.011-0.188,0.171-0.331,0.359-0.32
					c0.187,0.01,0.329,0.17,0.32,0.356c-0.056,1.134-0.302,2.28-0.811,3.322c-0.085,0.174-0.295,0.247-0.469,0.162
					c-0.174-0.085-0.247-0.295-0.162-0.469L179.78,210.872z"/>
				<path style="fill:#F35431;" d="M180.363,205.463c-0.248-1.018-0.762-1.961-1.47-2.74c-0.119-0.131-0.109-0.333,0.021-0.452
					c0.13-0.118,0.333-0.108,0.452,0.021c0.779,0.844,1.359,1.888,1.64,3.01c0.046,0.177-0.061,0.358-0.239,0.404
					c-0.177,0.046-0.358-0.061-0.403-0.238L180.363,205.463z"/>
				<path style="fill:#F35431;" d="M177.048,201.224c-0.914-0.552-1.92-0.956-2.958-1.249c-0.16-0.045-0.253-0.21-0.208-0.37
					c0.044-0.159,0.21-0.252,0.369-0.208c1.082,0.297,2.141,0.713,3.118,1.293c0.148,0.088,0.197,0.279,0.109,0.427
					c-0.088,0.148-0.279,0.197-0.427,0.109L177.048,201.224z"/>
				<path style="fill:#F35431;" d="M171.706,199.497c-1.076-0.137-2.164-0.182-3.252-0.151c-0.155,0.005-0.284-0.117-0.288-0.272
					c-0.005-0.154,0.116-0.283,0.27-0.288c1.113-0.04,2.232-0.002,3.342,0.132c0.16,0.019,0.274,0.165,0.255,0.325
					c-0.019,0.16-0.165,0.274-0.324,0.255L171.706,199.497z"/>
				<path style="fill:#F35431;" d="M166.014,199.544c-1.08,0.142-2.152,0.354-3.207,0.63c-0.139,0.036-0.281-0.047-0.318-0.186
					c-0.036-0.139,0.046-0.28,0.184-0.318c1.074-0.289,2.165-0.512,3.268-0.665c0.149-0.021,0.286,0.083,0.307,0.232
					c0.021,0.149-0.083,0.286-0.232,0.307L166.014,199.544z"/>
				<path style="fill:#F35431;" d="M160.465,200.902c-1.026,0.371-2.029,0.804-3.002,1.298c-0.118,0.06-0.263,0.013-0.323-0.106
					c-0.06-0.118-0.013-0.262,0.104-0.323c0.987-0.509,2.006-0.958,3.048-1.343c0.131-0.048,0.275,0.018,0.324,0.149
					c0.048,0.131-0.018,0.275-0.149,0.324L160.465,200.902z"/>
				<path style="fill:#F35431;" d="M155.329,203.412c-0.922,0.583-1.807,1.226-2.644,1.926c-0.094,0.078-0.233,0.066-0.311-0.028
					c-0.078-0.093-0.066-0.231,0.027-0.31c0.848-0.718,1.744-1.379,2.679-1.979c0.108-0.069,0.251-0.038,0.321,0.07
					c0.069,0.108,0.038,0.251-0.07,0.321L155.329,203.412z"/>
				<path style="fill:#F35431;" d="M150.885,207.005c-0.761,0.782-1.467,1.617-2.111,2.499c-0.065,0.089-0.191,0.109-0.28,0.044
					c-0.089-0.065-0.109-0.19-0.045-0.279c0.648-0.902,1.361-1.757,2.131-2.559c0.081-0.085,0.215-0.087,0.3-0.006
					s0.087,0.215,0.006,0.3L150.885,207.005z"/>
				<path style="fill:#F35431;" d="M147.438,211.563c-0.545,0.946-1.021,1.932-1.427,2.947c-0.037,0.093-0.142,0.138-0.235,0.101
					c-0.092-0.037-0.137-0.141-0.101-0.234c0.405-1.033,0.882-2.038,1.429-3.005c0.052-0.092,0.169-0.125,0.262-0.073
					c0.092,0.052,0.125,0.17,0.072,0.262L147.438,211.563z"/>
				<path style="fill:#F35431;" d="M145.217,216.836c-0.3,1.051-0.531,2.123-0.697,3.205c-0.013,0.088-0.096,0.148-0.183,0.135
					c-0.087-0.013-0.148-0.095-0.135-0.182c0.16-1.096,0.386-2.183,0.683-3.251c0.025-0.092,0.12-0.145,0.212-0.12
					c0.092,0.025,0.145,0.12,0.12,0.212L145.217,216.836z"/>
				<path style="fill:#F35431;" d="M144.256,222.489c-0.048,1.095-0.107,2.19-0.004,3.28c0.007,0.077-0.049,0.146-0.127,0.153
					c-0.077,0.007-0.146-0.053-0.154-0.13c-0.112-1.107-0.061-2.217-0.02-3.322c0.003-0.084,0.074-0.15,0.158-0.147
					c0.084,0.003,0.15,0.074,0.147,0.158v0.001L144.256,222.489z"/>
				<path style="fill:#F35431;" d="M144.622,228.197c0.244,1.065,0.596,2.105,1.051,3.099c0.027,0.06,0.001,0.131-0.059,0.159
					c-0.06,0.027-0.131,0.001-0.158-0.058c-0.469-1.005-0.835-2.059-1.09-3.139c-0.017-0.071,0.027-0.142,0.098-0.158
					c0.071-0.017,0.142,0.027,0.158,0.098L144.622,228.197z"/>
				<path style="fill:#F35431;" d="M146.863,233.447c0.598,0.916,1.285,1.775,2.037,2.571c0.037,0.04,0.036,0.102-0.004,0.14
					c-0.04,0.037-0.102,0.036-0.139-0.003c-0.766-0.799-1.467-1.662-2.079-2.585c-0.034-0.051-0.02-0.12,0.031-0.154
					C146.76,233.382,146.829,233.396,146.863,233.447L146.863,233.447z"/>
				<path style="fill:#F35431;" d="M150.695,237.708c0.839,0.707,1.727,1.355,2.649,1.951c0.036,0.023,0.046,0.072,0.023,0.108
					c-0.023,0.036-0.071,0.046-0.107,0.023c-0.931-0.593-1.83-1.238-2.68-1.944c-0.038-0.032-0.043-0.088-0.012-0.127
					C150.599,237.682,150.656,237.676,150.695,237.708L150.695,237.708z"/>
				<path style="fill:#F35431;" d="M155.471,240.916c0.967,0.522,1.959,0.999,2.968,1.435c0.029,0.012,0.042,0.046,0.03,0.075
					c-0.012,0.029-0.046,0.042-0.074,0.03c-1.015-0.43-2.014-0.9-2.988-1.418c-0.034-0.018-0.046-0.06-0.029-0.093
					C155.395,240.911,155.437,240.898,155.471,240.916L155.471,240.916z"/>
				<path style="fill:#F35431;" d="M160.738,243.268c1.033,0.379,2.078,0.723,3.134,1.034c0.019,0.006,0.03,0.026,0.024,0.045
					c-0.005,0.019-0.025,0.03-0.044,0.024c-1.059-0.304-2.109-0.641-3.146-1.013c-0.025-0.009-0.038-0.036-0.029-0.061
					S160.712,243.258,160.738,243.268L160.738,243.268z"/>
				<path style="fill:#F35431;" d="M166.261,244.95l3.226,0.706c0.008,0.001,0.014,0.009,0.012,0.017
					c-0.001,0.008-0.01,0.014-0.018,0.012l-3.233-0.683c-0.015-0.003-0.024-0.017-0.021-0.032c0.003-0.015,0.017-0.024,0.032-0.021
					L166.261,244.95z"/>
				<polygon style="fill:#F35431;" points="171.938,246.066 173.582,246.27 171.936,246.078 171.931,246.072 171.937,246.066 				
					"/>
			</g>
			<g>
				<path style="fill:#D3361C;" d="M188.658,156.589c0.128-0.138-10.305,2.062-10.305,2.062l-2.978,15.157l8.065-9.227l11.77,1.882
					l21.029-9.083L188.658,156.589z"/>
				<polygon style="fill:#F35431;" points="216.24,157.379 175.376,173.808 183.44,164.581 				"/>
				<polygon style="fill:#F35431;" points="216.24,157.379 172.244,151.28 178.353,158.65 216.24,157.379 183.44,164.581 
					193.691,177.502 				"/>
			</g>
		</g>
		<g>
			<g>
				<g>
					<rect x="186.93" y="240.91" style="fill:#FBB800;" width="202.21" height="151.56"/>
				</g>
				<g>
					<defs>
						
							<rect id="SVGID_1_" x="212.254" y="215.582" transform="matrix(-1.836970e-16 1 -1 -1.836970e-16 604.7274 28.654)" width="151.565" height="202.217"/>
					</defs>
					<clipPath id="SVGID_00000002371147852593081230000018236019265815672757_">
						<use xlink:href="#SVGID_1_"  style="overflow:visible;"/>
					</clipPath>
					<g style="clip-path:url(#SVGID_00000002371147852593081230000018236019265815672757_);">
						<g>
							<g>
								
									<rect x="265.538" y="335.842" transform="matrix(0.7284 -0.6852 0.6852 0.7284 -116.3367 390.3191)" style="fill:#F2446D;" width="337.201" height="12.104"/>
							</g>
							<g>
								<line style="fill:#2045CE;" x1="235.527" y1="457.411" x2="481.145" y2="226.378"/>
								
									<rect x="189.736" y="335.842" transform="matrix(0.7284 -0.6852 0.6852 0.7284 -136.9254 338.3821)" style="fill:#0E60D8;" width="337.201" height="12.104"/>
							</g>
							<g>
								<line style="fill:#2045CE;" x1="159.725" y1="457.411" x2="405.343" y2="226.378"/>
								
									<rect x="113.934" y="335.842" transform="matrix(0.7284 -0.6852 0.6852 0.7284 -157.5142 286.4453)" style="fill:#E72D27;" width="337.201" height="12.104"/>
							</g>
							<g>
								<line style="fill:#2045CE;" x1="83.923" y1="457.411" x2="329.541" y2="226.378"/>
								
									<rect x="38.132" y="335.842" transform="matrix(0.7284 -0.6852 0.6852 0.7284 -178.1036 234.5107)" style="fill:#0E60D8;" width="337.201" height="12.105"/>
							</g>
							<g>
								<line style="fill:#2045CE;" x1="8.121" y1="457.411" x2="253.739" y2="226.378"/>
								
									<rect x="-37.67" y="335.842" transform="matrix(0.7284 -0.6852 0.6852 0.7284 -198.6926 182.5734)" style="fill:#0E60D8;" width="337.201" height="12.105"/>
							</g>
						</g>
						<g>
							<g>
								
									<rect x="227.637" y="335.842" transform="matrix(0.7284 -0.6852 0.6852 0.7284 -126.6309 364.3538)" style="fill:#1A6CF3;" width="337.201" height="12.104"/>
							</g>
							<g>
								
									<rect x="151.835" y="335.842" transform="matrix(0.7284 -0.6852 0.6852 0.7284 -147.22 312.4165)" style="fill:#1A6CF3;" width="337.201" height="12.104"/>
							</g>
							<g>
								
									<rect x="76.033" y="335.842" transform="matrix(0.7284 -0.6852 0.6852 0.7284 -167.8088 260.4779)" style="fill:#E72D27;" width="337.201" height="12.105"/>
							</g>
							<g>
								
									<rect x="0.231" y="335.842" transform="matrix(0.7284 -0.6852 0.6852 0.7284 -188.3973 208.5399)" style="fill:#E72D27;" width="337.201" height="12.105"/>
							</g>
							<g>
								
									<rect x="-75.571" y="335.842" transform="matrix(0.7284 -0.6852 0.6852 0.7284 -208.9861 156.6027)" style="fill:#E72D27;" width="337.2" height="12.105"/>
							</g>
						</g>
					</g>
				</g>
				<rect x="192.692" y="246.67" style="fill:#FEC752;" width="190.689" height="140.038"/>
			</g>
			<g>
				<g>
					<g>
						<g>
							<g>
								<rect x="315.961" y="348.635" style="fill:#F35431;" width="54.737" height="0.577"/>
							</g>
						</g>
						<g>
							<g>
								<rect x="315.961" y="359.939" style="fill:#F35431;" width="54.737" height="0.577"/>
							</g>
						</g>
						<g>
							<g>
								<rect x="315.961" y="371.243" style="fill:#F35431;" width="54.737" height="0.577"/>
							</g>
						</g>
					</g>
				</g>
				<text transform="matrix(1 0 0 1 315.9626 342.9844)" style="fill:#F35431; font-family:'OpenSans'; font-size:6.9167px;">To:</text>
				<g>
					<g>
						<g>
							<g>
								<rect x="205.375" y="273.428" style="fill:#F35431;" width="83.923" height="0.576"/>
							</g>
						</g>
						<g>
							<g>
								<rect x="205.375" y="284.732" style="fill:#F35431;" width="83.923" height="0.576"/>
							</g>
						</g>
					</g>
				</g>
				<text transform="matrix(1 0 0 1 205.3767 267.7793)" style="fill:#F35431; font-family:'OpenSans'; font-size:6.9167px;">From:</text>
				<g>
					<rect x="205.375" y="358.661" style="fill:none;" width="80.196" height="12.871"/>
					<text transform="matrix(1 0 0 1 205.3747 361.5078)"><tspan x="0" y="0" style="fill:#F35431; font-family:'OpenSans'; font-size:3.7465px;">Lorem ipsum dolor sit amet, consectes</tspan><tspan x="0" y="4.495" style="fill:#F35431; font-family:'OpenSans'; font-size:3.7465px;">adipiscing elit, sed do eiusmod tempor </tspan><tspan x="0" y="8.991" style="fill:#F35431; font-family:'OpenSans'; font-size:3.7465px;">incididunt ut labore et dolore mansi.</tspan></text>
				</g>
			</g>
		</g>
		<g>
			<defs>
				
					<rect id="SVGID_00000078737394525478011510000014465459418933396403_" x="186.503" y="228.897" width="218.239" height="163.574"/>
			</defs>
			<clipPath id="SVGID_00000152262896985610826040000016642374449558455451_">
				<use xlink:href="#SVGID_00000078737394525478011510000014465459418933396403_"  style="overflow:visible;"/>
			</clipPath>
			<g style="clip-path:url(#SVGID_00000152262896985610826040000016642374449558455451_);">
				<g>
					<path style="fill:#B0EEFF;" d="M185.223,331.429c0.744-3.682,5.11-8.198,7.44-11.145c2.159-2.731,4.375-5.903,7.118-8.046
						c2.745-2.144,4.996-4.872,6.776-7.867c5.579-9.387,1.513-11.6-0.229-12.123c-1.712-0.514-3.46,0.242-5.448,2.237
						c-1.599,1.605-7.678,10.429-9.131,6.927c-1.682-4.053,5.961-12.058,8.015-15.184c3.073-4.676,5.437-10.527,4.961-16.208
						c-0.235-2.8-1.53-5.897-4.22-6.711c-1.61-0.487-3.372-0.023-4.854,0.772c-4.464,2.396-6.643,7.177-8.3,11.719
						c-0.693,1.899-1.874,12.563-5.174,8.349c-0.788-1.006-2.878-14.22-9.455-8.663c-2.316,1.957-1.955,6.511-0.673,12.98
						c0.801,4.04,5.554,17.064,2.83,19.079c-2.724,2.014-4.112-6.543-7.743-1.451c-2.034,2.853-0.398,7.792,0.975,10.859
						c0.653,1.459,1.595,2.784,2.152,4.283c0.66,1.778,0.773,4.7-1.542,5.291c-1.011,0.258-2.11-0.165-3.112,0.126
						c-1.018,0.296-1.713,1.296-1.917,2.336c-0.204,1.04,0.004,2.116,0.288,3.137c1.82,6.546,6.74,11.911,12.52,15.482
						c5.78,3.572,2.45,4.47,9.061,6.039"/>
				</g>
				<g style="opacity:0.25;">
					
						<path style="fill:none;stroke:#FFFFFF;stroke-width:0.8353;stroke-linecap:round;stroke-linejoin:round;stroke-miterlimit:10;" d="
						M198.965,269.793c0,0-19.591,31.345-18.874,62.914"/>
					
						<path style="fill:none;stroke:#FFFFFF;stroke-width:0.8353;stroke-linecap:round;stroke-linejoin:round;stroke-miterlimit:10;" d="
						M175.312,280.469c0,0,2.469,15.41,8.938,23.314"/>
					
						<path style="fill:none;stroke:#FFFFFF;stroke-width:0.8353;stroke-linecap:round;stroke-linejoin:round;stroke-miterlimit:10;" d="
						M204.61,296.829c-3.414,4.617-13.893,16.625-23.082,18.575"/>
					
						<path style="fill:none;stroke:#FFFFFF;stroke-width:0.8353;stroke-linecap:round;stroke-linejoin:round;stroke-miterlimit:10;" d="
						M169.648,310.057c0,0,0.693,6.351,10.488,17.775"/>
					
						<path style="fill:none;stroke:#FFFFFF;stroke-width:0.8353;stroke-linecap:round;stroke-linejoin:round;stroke-miterlimit:10;" d="
						M167.075,329.386c0,0,4.728,6.252,12.505,7.973"/>
				</g>
			</g>
		</g>
		<g>
			<path style="opacity:0.3;fill:#7A520B;" d="M282.765,392.56h-92.814c-0.72-3.037,0.74-5.976,3.212-7.475
				c1.012-0.623,2.18-0.993,3.465-1.032c4.789-0.136,9.344,0.136,13.84,0.74v-0.195c-3.854-3.095-7.65-6.949-7.825-10.181
				c-0.117-2.063,0.175-4.847,0.662-7.689c0.993-6.015,2.745-12.264,2.881-12.731c-0.487-0.292-0.72-0.487-0.72-0.487
				s5.139-25.228,24.878-25.17c0,0,0.058,0.117,0.136,0.292c1.479-0.934,1.849-3.387,1.927-4.555
				c-0.993-0.565-2.044-1.538-2.939-3.173c-0.896-0.02-2.414-0.214-3.095-1.304c0,0-3.192-0.039-3.582-2.647
				c-0.389-2.608,0.993-4.049,0.993-4.049s-2.472-0.506-2.939-2.706c-0.565-2.706,1.499-3.679,1.499-3.679s-2.511-2.2,0-5.003
				c1.499-1.674,3.699-0.311,3.699-0.311s-0.681-3.348,2.803-3.854c3.699-0.545,3.952,2.589,3.952,2.589s0.02-4.555,4.789-3.582
				c3.679,0.759,3.27,3.737,3.173,4.302c0.234-0.564,1.596-3.309,4.906-1.538c3.114,1.655,1.596,4.808,1.596,4.808
				s2.803-0.234,3.407,2.784c0.876,4.419-1.733,5.314-1.733,5.314s1.927,0.954,1.713,3.445c-0.273,2.9-3.212,3.562-3.212,3.562
				s-1.577,2.356-4.302,2.005c-0.818,1.421-1.927,2.589-3.445,3.251c0,0.195,0.019,0.389,0.039,0.603
				c0.117,0.973,0.389,2.219,1.071,2.92c0.389,0.389,0.72,0.604,1.012,0.701c0.02-0.058,0.039-0.117,0.058-0.195
				c19.369-0.214,25.306,25.384,25.306,25.384s-0.175,0.097-0.467,0.214c0,0,1.83,6.502,2.881,12.731c0,0.02,0,0.058,0.02,0.078
				v0.059c0.467,2.823,0.779,5.567,0.662,7.631c0,0.039-0.019,0.078-0.019,0.117c-0.039,0.331-0.097,0.662-0.195,1.012
				c-0.039,0.117-0.078,0.253-0.136,0.389c-0.097,0.272-0.214,0.545-0.35,0.837c-0.058,0.117-0.117,0.234-0.175,0.37
				c-0.214,0.37-0.448,0.759-0.72,1.148c-0.059,0.097-0.117,0.175-0.175,0.272c-0.234,0.311-0.487,0.642-0.759,0.954
				c-0.097,0.136-0.214,0.273-0.331,0.409c-0.253,0.292-0.526,0.584-0.818,0.876c-0.097,0.117-0.195,0.234-0.292,0.331
				c-0.37,0.389-0.759,0.759-1.168,1.148c-0.136,0.117-0.272,0.234-0.409,0.351c-0.292,0.272-0.584,0.525-0.876,0.779
				c-0.175,0.156-0.331,0.292-0.506,0.448c-0.292,0.234-0.584,0.467-0.876,0.72c-0.156,0.117-0.292,0.234-0.448,0.35
				c4.575-0.604,9.207-0.876,14.074-0.72c1.148,0.039,2.238,0.35,3.173,0.876C281.87,386.506,283.427,389.484,282.765,392.56z"/>
			<g>
				<path style="opacity:0.32;fill:#97C4F2;" d="M294.178,404.208c0,2.164-24.293,3.918-54.259,3.918
					c-29.967,0-54.259-1.754-54.259-3.918c0-2.164,24.293-3.918,54.259-3.918C269.885,400.29,294.178,402.044,294.178,404.208z"/>
				<path style="fill:#E72D27;" d="M236.167,320.2c0,0-2.704,0.285-3.67-1.254c0,0-3.114-0.05-3.49-2.582
					c-0.376-2.532,0.967-3.922,0.967-3.922s-2.399-0.496-2.846-2.631c-0.55-2.63,1.45-3.574,1.45-3.574s-2.45-2.15,0-4.866
					c1.463-1.622,3.597-0.298,3.597-0.298s-0.668-3.26,2.715-3.757c3.608-0.53,3.835,2.516,3.835,2.516s0.02-4.419,4.662-3.475
					c3.959,0.805,3.054,4.27,3.054,4.27s1.216-3.5,4.794-1.589c3.027,1.617,1.561,4.667,1.561,4.667s2.716-0.218,3.295,2.706
					c0.851,4.294-1.681,5.163-1.681,5.163s1.887,0.943,1.663,3.351c-0.263,2.83-3.119,3.475-3.119,3.475s-1.632,2.491-4.478,1.911"
					/>
				<path style="fill:#FFDCC5;" d="M248.474,327.638c0,0-0.326,5.862-5.656,5.695c-1.152-0.04-2.129-0.302-2.955-0.707
					c-3.003-1.446-4.012-4.623-4.012-4.623c2.542-0.651,2.542-5.33,2.542-5.33l7.006,0.207c0,0-0.008,0.524,0.072,1.215
					c0.111,0.929,0.373,2.153,1.033,2.828C247.656,328.099,248.474,327.638,248.474,327.638z"/>
				<path style="fill:#FCA265;" d="M240.086,324.723c0,0-2.018,2.717-1.493,4.337c0.532,1.621,1.803,3.13,3.058,3.297l-1.787,0.27
					c-3.003-1.446-4.012-4.623-4.012-4.623c2.542-0.651,2.542-5.33,2.542-5.33l7.006,0.207c0,0-0.008,0.524,0.072,1.215
					C244.661,324.564,242.572,325.517,240.086,324.723z"/>
				<path d="M236.356,327.431c0,0,1.991,4.91,5.806,4.968c3.976,0.06,4.871-2.532,5.384-4.98
					c18.829-0.207,24.601,24.669,24.601,24.669s-2.059,0.963-4.056,1.558c-2.131,0.635-3.698,1.612-3.698,1.612l-2.556,34.53h-39.96
					l-0.681-34.55c0,0-2.626-0.629-4.749-1.325c-3.108-1.019-4.271-2.015-4.271-2.015S217.178,327.383,236.356,327.431z"/>
				<path style="fill:#FFE1BD;" d="M212.885,352.293c0,0-3.811,13.478-3.46,19.918c0.351,6.439,15.571,15.454,15.571,15.454
					l1.99-6.79c0,0-6.322-2.693-7.259-7.61c-0.937-4.917,2.965-17.688,2.965-17.688s-0.939-0.25-4.144-1.128
					C215.432,353.595,212.885,352.293,212.885,352.293z"/>
				<path style="fill:#FCA265;" d="M226.987,380.876l-1.311,4.48l-0.683,2.312c0,0-15.22-9.016-15.569-15.458
					c-0.35-6.434,3.463-19.915,3.463-19.915s0.882,0.453,2.24,0.993c0.953,0.389,2.137,0.81,3.424,1.16
					c3.201,0.882,4.139,1.128,4.139,1.128s-3.9,12.773-2.963,17.69C220.664,378.183,226.987,380.876,226.987,380.876z"/>
				<path style="fill:#FFDCC5;" d="M226.987,380.876l-1.311,4.48c-4.186-2.741-13.202-9.199-13.472-14.14
					c-0.27-4.917,1.891-13.941,2.923-17.928c0.953,0.389,2.137,0.81,3.424,1.16c3.201,0.882,4.139,1.128,4.139,1.128
					s-3.9,12.773-2.963,17.69C220.664,378.183,226.987,380.876,226.987,380.876z"/>
				<path style="fill:#FFE1BD;" d="M271.684,352.293c0,0,3.811,13.478,3.46,19.918c-0.351,6.439-15.571,15.454-15.571,15.454
					l-1.99-6.79c0,0,6.322-2.693,7.259-7.61c0.937-4.917-3.4-17.742-3.4-17.742s1.374-0.375,4.579-1.253
					C269.138,353.415,271.684,352.293,271.684,352.293z"/>
				<path style="fill:#FCA265;" d="M275.141,372.21c-0.254,4.726-8.508,10.827-12.892,13.75c-1.589,1.065-2.677,1.708-2.677,1.708
					l-1.986-6.792c0,0,1.247-0.532,2.717-1.557c0.048-0.032,0.095-0.064,0.143-0.095c0-0.008,0-0.008,0.008-0.008
					c1.803-1.279,3.884-3.289,4.385-5.95c0.937-4.917-3.4-17.746-3.4-17.746s0.906-0.246,2.963-0.81
					c0.477-0.127,1.017-0.27,1.621-0.437c3.114-0.858,5.664-1.978,5.664-1.978S275.498,365.775,275.141,372.21z"/>
				<path style="fill:#FFDCC5;" d="M275.141,372.21c-0.254,4.726-8.508,10.827-12.892,13.75l-1.946-6.641l-0.008-0.032
					c0,0,0.056-0.024,0.151-0.064c0-0.008,0-0.008,0.008-0.008c0.977-0.453,6.244-3.082,7.094-7.539
					c0.802-4.186-2.232-14.116-3.146-16.967c0.477-0.127,1.017-0.27,1.621-0.437c3.114-0.858,5.664-1.978,5.664-1.978
					S275.498,365.775,275.141,372.21z"/>
				<path style="fill:#E72D27;" d="M266.715,390.348h-49.378l-1.12-30.937c-0.029-0.802,0.613-1.468,1.416-1.468h48.786
					c0.803,0,1.445,0.666,1.416,1.468L266.715,390.348z"/>
				<g>
					<path style="fill:#E72D27;" d="M266.134,398.704c0,0,0.856-1.011,2.847-1.065c1.291-0.035,4.947,0.792,6.691,0.763
						c1.744-0.029,3.559-0.411,4.559,1.077c1.698,2.526,0.964,4.804-1.896,5.146c-1.555,0.186-2.84-0.841-5.311-0.596
						c-2.394,0.237-6.129-0.563-7.216-2.273"/>
					<path style="fill:#FCA265;" d="M262.756,397.527c0,0,1.928,0.551,3.208,0.62c1.28,0.069,4.151-0.25,5.448,0.566
						c1.405,0.884,0.885,3.278-0.006,3.844c-1.438,0.913-2.6,0.441-5.23-0.388c-2.63-0.829-5.717-0.513-5.717-0.513"/>
					<path style="fill:#1A6CF3;" d="M203.593,381.578c-4.363,0.136-7.571,4.247-6.458,8.467c0.017,0.063,0.034,0.126,0.052,0.189
						c1.791,6.342,10.115,9.569,19.872,10.855c9.757,1.286,46.368,1.944,46.368,1.944s1.594-1.958,0.954-6.623
						c0,0-8.701-1.894-20.072-6.429C230.118,384.321,217.822,381.133,203.593,381.578z"/>
					<path style="fill:#E72D27;" d="M272.241,399.019c0,0-0.97-0.54-1.293,0.042c-0.323,0.582-0.498,3.057-0.331,3.435
						c0.303,0.684,1.725,0.439,1.725,0.439l1.16-3.13L272.241,399.019z"/>
				</g>
				<g>
					<path style="fill:#E72D27;" d="M218.161,398.816c0,0-0.873-1.039-2.913-1.102c-1.323-0.041-5.071,0.792-6.858,0.756
						c-1.786-0.036-3.544-0.424-4.684,0.777c-2.147,2.261-0.149,5.1,2.78,5.462c1.593,0.197,2.064-0.722,4.595-0.462
						c2.452,0.252,6.282-0.553,7.402-2.302"/>
					<path style="fill:#FCA265;" d="M221.627,397.623c0,0-1.978,0.558-3.289,0.623c-1.311,0.066-4.252-0.272-5.584,0.559
						c-1.442,0.9-0.918,3.356-0.008,3.938c1.47,0.94,2.662,0.461,5.36-0.378c2.698-0.839,5.859-0.504,5.859-0.504"/>
					<path style="fill:#1A6CF3;" d="M280.798,381.731c4.362,0.152,7.555,4.275,6.427,8.491c-0.017,0.063-0.034,0.125-0.052,0.189
						c-1.814,6.336-10.15,9.532-19.912,10.782c-9.762,1.25-46.375,1.774-46.375,1.774s-1.587-1.964-0.929-6.627
						c0,0,8.707-1.863,20.095-6.356C254.264,384.376,266.571,381.233,280.798,381.731z"/>
					<g>
						<path d="M219.957,396.34c1.878-0.521,3.745-1.068,5.607-1.633c1.86-0.569,3.719-1.138,5.562-1.761
							c1.855-0.584,3.691-1.225,5.528-1.864c1.84-0.63,3.664-1.313,5.518-1.921c-1.782,0.79-3.572,1.559-5.392,2.262
							c-1.816,0.712-3.659,1.351-5.507,1.972c-1.859,0.587-3.723,1.165-5.609,1.66C223.776,395.548,221.879,396.009,219.957,396.34z
							"/>
					</g>
					<path style="fill:#E72D27;" d="M211.902,399.116c0,0,0.996-0.55,1.325,0.048c0.329,0.598,0.499,3.133,0.326,3.521
						c-0.313,0.7-1.769,0.443-1.769,0.443l-1.177-3.211L211.902,399.116z"/>
				</g>
				<path style="fill:#FCA265;" d="M243.411,324.072c0,0-0.025,0-0.075,0c-0.564,0.063-1.166,0.063-1.805,0
					c0,0-8.951,1.141-7.886-16.561h16.975C250.62,307.51,252.451,323.069,243.411,324.072z"/>
				<path style="fill:#FFDCC5;" d="M243.411,324.072c0,0-0.025,0-0.075,0c-0.89,0.063-8.813,0.15-7.811-16.561h15.094
					C250.62,307.51,252.451,323.069,243.411,324.072z"/>
				<path style="fill:#E72D27;" d="M232.688,313.038c0,0,1.787,0.348,2.383-1.44c0,0,2.879-0.298,2.979-2.78
					c0,0,2.532,0.894,3.773-0.894c0,0,0.571,1.688,2.16,1.738c1.589,0.05,2.06-0.993,2.06-0.993s0.155,2.33,2.432,2.681
					c2.277,0.35,2.881-2.135,2.881-2.135l-0.588-3.624l-6.561-0.844l-9.334,0.943l-3.426,0.447L232.688,313.038z"/>
				<path style="fill:#FFFFFF;" d="M244.852,373.157c0,1.755-1.423,3.177-3.178,3.177c-1.755,0-3.177-1.423-3.177-3.177
					c0-1.755,1.423-3.177,3.177-3.177C243.429,369.979,244.852,371.402,244.852,373.157z"/>
			</g>
		</g>
		<g>
			<g>
				<path style="fill:#2C1F23;" d="M563.685,237.968c2.053-2.936,4.334-5.672,6.671-8.359c2.359-2.667,4.776-5.284,7.422-7.7
					c-2.052,2.937-4.333,5.673-6.671,8.359C568.746,232.934,566.329,235.551,563.685,237.968z"/>
			</g>
			<g>
				<path style="fill:#2C1F23;" d="M564.473,223.705c0.058-1.42,0.405-2.743,0.821-4.043c0.446-1.29,0.961-2.558,1.769-3.727
					c-0.056,1.421-0.403,2.744-0.821,4.043C565.794,221.268,565.279,222.535,564.473,223.705z"/>
			</g>
			<g>
				<path style="fill:#2C1F23;" d="M560.307,236.204c0.097-1.539,0.484-2.981,0.94-4.4c0.485-1.41,1.041-2.796,1.888-4.084
					c-0.095,1.54-0.482,2.982-0.94,4.4C561.708,233.528,561.152,234.914,560.307,236.204z"/>
			</g>
			<g>
				<path style="fill:#2C1F23;" d="M579.776,237.505c0.978-0.884,2.083-1.503,3.217-2.06c1.147-0.53,2.324-0.995,3.628-1.194
					c-0.977,0.886-2.082,1.505-3.217,2.06C582.256,236.839,581.079,237.304,579.776,237.505z"/>
			</g>
			<g>
				<path style="fill:#2C1F23;" d="M568.099,243.056c1.068-0.927,2.263-1.589,3.486-2.188c1.237-0.572,2.504-1.081,3.898-1.322
					c-1.067,0.929-2.262,1.591-3.486,2.188C570.759,242.304,569.492,242.813,568.099,243.056z"/>
			</g>
			<g>
				<path style="fill:#2C1F23;" d="M570.278,247.912c3.567-0.332,7.129-0.361,10.69-0.316c3.56,0.075,7.119,0.227,10.673,0.684
					c-3.567,0.334-7.129,0.363-10.69,0.316C577.391,248.518,573.832,248.366,570.278,247.912z"/>
			</g>
		</g>
		<g>
			<g>
				<path style="fill:#282228;" d="M512.624,344.559c-3.733,14.948,15.602,22.637,27.291,23.216
					c5.869,0.29,13.332-3.059,13.301-9.895c-0.023-5.182-4.936-8.668-9.673-9.286c-6.322-0.824-11.452,3.582-14.869,8.437
					c-4.194,5.959-7.764,13.409-9.02,20.615c-1.094,6.278-0.259,13.184,3.766,18.326c4.292,5.482,11.327,7.636,18.036,8.049
					c9.148,0.564,17.214-2.402,25.186-6.565c7.198-3.758,17.23-8.584,24.682-2.614c1.481,1.186,3.6-0.907,2.105-2.105
					c-9.622-7.709-21.343-1.367-30.65,3.376c-6.278,3.198-12.858,5.189-19.965,4.994c-5.951-0.163-12.492-1.7-16.567-6.366
					c-8.685-9.944-2.048-25.123,3.932-34.607c2.9-4.599,7.566-9.674,13.575-8.509c5.686,1.102,9.056,7.327,3.559,11.328
					c-3.259,2.372-7.503,2.09-11.242,1.306c-3.436-0.72-6.926-1.688-10.15-3.089c-6.147-2.669-12.26-8.482-10.427-15.82
					C515.959,343.491,513.089,342.698,512.624,344.559L512.624,344.559z"/>
			</g>
		</g>
		<g>
			<path style="opacity:0.3;" d="M367.35,240.91v151.56h-40.03c-0.38-2.06-0.43-4.2-0.13-6.32l18.19-129.7
				c0.78-5.54,2.7-10.83,5.62-15.54H367.35z"/>
			<path style="fill:#0E60D8;" d="M530.149,409.616c-5.435,8.132-16.341,8.132-21.098,8.132l-155.557-8.919
				c-4.757,0-14.766,2.501-17.461-1.416c-3.042-4.421-3.208-14.542-2.264-21.268l18.195-129.705
				c1.211-8.651,5.21-16.671,11.386-22.847l16.023-15.036l19.393,15.363l77.706-5.896l8.276-8.615l14.779,10.754
				c8.178,5.951,14.032,14.712,15.841,24.663c0.097,0.535,0.184,1.074,0.26,1.614l18.195,129.705
				C535.678,394.493,533.924,403.967,530.149,409.616z"/>
			<path style="fill:#1A6CF3;" d="M521.651,412.955c-3.511,3.092-7.976,4.794-12.6,4.794H352.937c-4.624,0-9.089-1.702-12.6-4.794
				c-5.014-4.422-7.492-11.164-6.575-17.89l17.687-129.705c1.178-8.651,5.064-16.671,11.068-22.847l14.081-14.486h20.713
				l0.277-11.161l62.218,0.86l4.869,10.301h20.714l13.784,12.381c0.559,0.502,1.105,1.017,1.606,1.576
				c5.523,6.167,8.633,15.101,9.76,23.376l17.686,129.705C529.143,401.791,526.665,408.532,521.651,412.955z"/>
			<path style="fill:#0E60D8;" d="M521.65,412.95c-3.51,3.1-7.98,4.8-12.6,4.8H352.94c-4.63,0-9.09-1.7-12.6-4.8
				c-5.02-4.42-7.49-11.16-6.58-17.89l0.34-2.49c0.92,4.05,3.08,7.76,6.24,10.54c3.51,3.09,7.97,4.79,12.6,4.79h156.11
				c4.62,0,9.09-1.7,12.6-4.79c3.16-2.78,5.32-6.49,6.24-10.54l0.34,2.49C529.14,401.79,526.67,408.53,521.65,412.95z"/>
			<path style="fill:#2C1F23;" d="M377.838,228.025l1.389-18.221c0.184-2.415,2.197-4.28,4.619-4.28h7.88
				c2.436,0,4.456,1.887,4.622,4.317l1.241,18.185H377.838z"/>
			<path style="fill:#2C1F23;" d="M465.585,228.025l1.389-18.221c0.184-2.415,2.197-4.28,4.619-4.28h7.88
				c2.436,0,4.456,1.887,4.622,4.317l1.241,18.185H465.585z"/>
			<polygon style="fill:#0E60D8;" points="466.469,228.025 396.875,228.025 396.827,216.864 466.43,216.933 			"/>
			<circle style="fill:#2C1F23;" cx="433.795" cy="315.496" r="20.254"/>
			<circle style="fill:none;stroke:#2C1F23;stroke-width:0.7433;stroke-miterlimit:10;" cx="433.795" cy="315.496" r="22.566"/>
			<g>
				<g>
					<g>
						<path style="fill:#FFFFFF;" d="M424.662,280.269c2.266,0.862,3.404,3.398,2.542,5.664c-0.862,2.266-3.398,3.404-5.664,2.542
							c-2.266-0.862-3.404-3.398-2.542-5.664C419.861,280.545,422.396,279.407,424.662,280.269z"/>
						<path style="fill:#2C1F23;" d="M423.605,283.048c0.731,0.278,1.099,1.097,0.82,1.828c-0.278,0.731-1.097,1.099-1.828,0.82
							c-0.731-0.278-1.099-1.097-0.82-1.828C422.055,283.137,422.874,282.77,423.605,283.048z"/>
						<path style="fill:#D8D8D8;" d="M427.044,282.456c0.516,1.047,0.605,2.298,0.156,3.479c-0.862,2.265-3.393,3.401-5.658,2.539
							c-1.202-0.457-2.083-1.381-2.514-2.483c0.473,0.951,1.29,1.731,2.359,2.138c2.265,0.862,4.803-0.272,5.665-2.536
							C427.451,284.543,427.422,283.427,427.044,282.456z"/>
					</g>
					<g>
						<path style="fill:#FFFFFF;" d="M408.588,289.471c2.393-0.386,4.647,1.241,5.033,3.634c0.386,2.393-1.241,4.647-3.634,5.033
							c-2.393,0.386-4.647-1.241-5.033-3.634C404.568,292.11,406.194,289.857,408.588,289.471z"/>
						<path style="fill:#2C1F23;" d="M409.062,292.406c0.772-0.125,1.5,0.4,1.624,1.173c0.125,0.773-0.4,1.5-1.173,1.625
							c-0.772,0.125-1.5-0.4-1.625-1.173C407.764,293.258,408.289,292.53,409.062,292.406z"/>
						<path style="fill:#D8D8D8;" d="M411.744,290.173c0.971,0.649,1.673,1.688,1.874,2.935c0.386,2.392-1.238,4.642-3.63,5.028
							c-1.269,0.205-2.494-0.155-3.419-0.893c0.885,0.587,1.983,0.854,3.112,0.672c2.392-0.386,4.024-2.637,3.638-5.029
							C413.14,291.777,412.557,290.825,411.744,290.173z"/>
					</g>
					<g>
						<path style="fill:#FFFFFF;" d="M402.457,304.51c2.413,0.23,4.183,2.373,3.953,4.787c-0.23,2.413-2.374,4.183-4.787,3.953
							c-2.414-0.23-4.183-2.374-3.953-4.787C397.901,306.049,400.044,304.279,402.457,304.51z"/>
						<path style="fill:#2C1F23;" d="M402.175,307.469c0.779,0.074,1.35,0.766,1.276,1.545c-0.074,0.779-0.766,1.35-1.545,1.276
							c-0.779-0.074-1.35-0.766-1.276-1.545C400.704,307.966,401.396,307.395,402.175,307.469z"/>
						<path style="fill:#D8D8D8;" d="M405.334,305.986c0.775,0.873,1.193,2.055,1.073,3.313c-0.23,2.412-2.37,4.179-4.782,3.949
							c-1.28-0.122-2.374-0.779-3.083-1.728c0.708,0.792,1.703,1.327,2.842,1.436c2.412,0.23,4.559-1.536,4.789-3.948
							C406.279,307.891,405.956,306.822,405.334,305.986z"/>
					</g>
					<g>
						<path style="fill:#FFFFFF;" d="M403.524,321.174c2.421,0.123,4.285,2.185,4.162,4.606c-0.123,2.421-2.185,4.285-4.606,4.162
							c-2.421-0.123-4.285-2.185-4.162-4.606C399.04,322.916,401.102,321.052,403.524,321.174z"/>
						<path style="fill:#2C1F23;" d="M403.374,324.144c0.781,0.04,1.383,0.705,1.343,1.487c-0.04,0.781-0.705,1.383-1.487,1.343
							c-0.781-0.04-1.383-0.705-1.344-1.487C401.926,324.706,402.592,324.104,403.374,324.144z"/>
						<path style="fill:#D8D8D8;" d="M406.463,322.521c0.813,0.837,1.283,2,1.219,3.262c-0.122,2.42-2.181,4.28-4.601,4.158
							c-1.284-0.065-2.407-0.672-3.157-1.589c0.743,0.759,1.76,1.25,2.903,1.308c2.42,0.122,4.486-1.738,4.609-4.158
							C407.493,324.382,407.122,323.329,406.463,322.521z"/>
					</g>
					<g>
						<path style="fill:#FFFFFF;" d="M412.484,334.99c2.421-0.138,4.495,1.712,4.633,4.133c0.138,2.421-1.712,4.495-4.133,4.633
							c-2.421,0.138-4.495-1.712-4.633-4.133S410.063,335.128,412.484,334.99z"/>
						<path style="fill:#2C1F23;" d="M412.653,337.958c0.781-0.045,1.451,0.553,1.495,1.334c0.045,0.781-0.553,1.451-1.334,1.495
							c-0.781,0.045-1.451-0.553-1.495-1.334C411.275,338.672,411.872,338.003,412.653,337.958z"/>
						<path style="fill:#D8D8D8;" d="M415.551,336.013c0.899,0.745,1.49,1.851,1.562,3.112c0.138,2.419-1.709,4.49-4.128,4.628
							c-1.284,0.073-2.465-0.41-3.309-1.24c0.82,0.675,1.884,1.054,3.027,0.988c2.419-0.138,4.274-2.209,4.136-4.628
							C416.774,337.753,416.292,336.745,415.551,336.013z"/>
					</g>
					<g>
						
							<ellipse transform="matrix(0.9247 -0.3806 0.3806 0.9247 -99.7286 188.918)" style="fill:#FFFFFF;" cx="427.809" cy="346.62" rx="4.39" ry="4.39"/>
						<path style="fill:#2C1F23;" d="M427.585,345.221c0.773-0.124,1.499,0.402,1.623,1.175s-0.402,1.499-1.175,1.623
							c-0.773,0.124-1.499-0.402-1.623-1.175C426.286,346.071,426.812,345.345,427.585,345.221z"/>
						<path style="fill:#D8D8D8;" d="M430.27,342.991c0.97,0.65,1.671,1.69,1.871,2.937c0.383,2.393-1.244,4.641-3.636,5.024
							c-1.27,0.203-2.494-0.157-3.418-0.897c0.885,0.588,1.982,0.857,3.112,0.676c2.393-0.383,4.027-2.632,3.643-5.025
							C431.664,344.597,431.082,343.644,430.27,342.991z"/>
					</g>
					<g>
						<path style="fill:#FFFFFF;" d="M442.563,341.413c2.179-1.063,4.807-0.159,5.871,2.019c1.064,2.179,0.16,4.807-2.019,5.871
							c-2.179,1.064-4.807,0.16-5.871-2.019C439.48,345.105,440.384,342.477,442.563,341.413z"/>
						<path style="fill:#2C1F23;" d="M443.867,344.085c0.703-0.343,1.552-0.052,1.895,0.652c0.343,0.703,0.051,1.552-0.652,1.895
							c-0.703,0.343-1.552,0.052-1.895-0.652C442.872,345.277,443.164,344.428,443.867,344.085z"/>
						<path style="fill:#D8D8D8;" d="M445.787,341.171c1.117,0.34,2.09,1.13,2.644,2.266c1.063,2.177,0.16,4.802-2.017,5.865
							c-1.155,0.564-2.432,0.575-3.531,0.136c1.017,0.305,2.145,0.243,3.174-0.259c2.177-1.063,3.087-3.69,2.024-5.868
							C447.588,342.302,446.754,341.559,445.787,341.171z"/>
					</g>
					<g>
						<path style="fill:#FFFFFF;" d="M458.441,331.539c2.423,0.077,4.325,2.104,4.248,4.527c-0.077,2.423-2.104,4.325-4.527,4.249
							c-2.423-0.077-4.325-2.104-4.249-4.527C453.991,333.364,456.018,331.462,458.441,331.539z"/>
						<circle style="fill:#2C1F23;" cx="458.302" cy="335.926" r="1.417"/>
						<path style="fill:#D8D8D8;" d="M461.406,332.83c0.829,0.822,1.321,1.975,1.281,3.238c-0.077,2.422-2.1,4.321-4.522,4.244
							c-1.285-0.041-2.419-0.627-3.186-1.529c0.757,0.745,1.783,1.216,2.927,1.253c2.422,0.077,4.453-1.822,4.529-4.244
							C462.47,334.671,462.079,333.625,461.406,332.83z"/>
					</g>
					<g>
						<path style="fill:#FFFFFF;" d="M465.73,316.465c2.422,0.1,4.305,2.144,4.206,4.566c-0.1,2.422-2.144,4.305-4.566,4.206
							c-2.422-0.1-4.305-2.144-4.206-4.566C461.263,318.248,463.307,316.365,465.73,316.465z"/>
						<path style="fill:#2C1F23;" d="M465.608,319.435c0.782,0.032,1.39,0.692,1.357,1.474s-0.692,1.389-1.474,1.357
							c-0.782-0.032-1.39-0.692-1.357-1.474C464.166,320.011,464.826,319.403,465.608,319.435z"/>
						<path style="fill:#D8D8D8;" d="M468.682,317.784c0.821,0.83,1.302,1.988,1.25,3.25c-0.1,2.421-2.141,4.301-4.562,4.201
							c-1.285-0.053-2.413-0.65-3.172-1.559c0.75,0.752,1.772,1.233,2.915,1.28c2.421,0.099,4.47-1.78,4.569-4.201
							C469.729,319.635,469.348,318.585,468.682,317.784z"/>
					</g>
					<g>
						<path style="fill:#FFFFFF;" d="M463.608,299.835c2.395-0.375,4.641,1.262,5.017,3.657c0.376,2.395-1.262,4.641-3.657,5.017
							c-2.395,0.375-4.641-1.262-5.017-3.657C459.576,302.457,461.213,300.21,463.608,299.835z"/>
						<path style="fill:#2C1F23;" d="M464.068,302.772c0.773-0.121,1.498,0.407,1.619,1.18c0.121,0.773-0.407,1.498-1.18,1.619
							c-0.773,0.121-1.498-0.407-1.619-1.18C462.767,303.618,463.295,302.893,464.068,302.772z"/>
						<path style="fill:#D8D8D8;" d="M466.761,300.552c0.967,0.653,1.665,1.695,1.861,2.943c0.375,2.394-1.259,4.636-3.653,5.012
							c-1.27,0.199-2.494-0.166-3.415-0.909c0.883,0.591,1.979,0.863,3.109,0.686c2.394-0.375,4.036-2.619,3.66-5.012
							C468.149,302.162,467.571,301.207,466.761,300.552z"/>
					</g>
				</g>
				
					<ellipse transform="matrix(0.7071 -0.7071 0.7071 0.7071 -96.0336 399.1458)" style="fill:none;stroke:#2C1F23;stroke-width:1.4865;stroke-miterlimit:10;" cx="433.795" cy="315.496" rx="40.944" ry="40.944"/>
				<g>
					<path style="fill:#2C1F23;" d="M480.415,296.474c0-1.016,0.504-1.672,1.52-1.672c1.026,0,1.53,0.656,1.53,1.672v3.429
						c0,1.016-0.504,1.681-1.53,1.681c-1.016,0-1.52-0.665-1.52-1.681V296.474z M481.146,299.951c0,0.598,0.257,0.959,0.788,0.959
						c0.541,0,0.789-0.361,0.789-0.959v-3.514c0-0.608-0.247-0.969-0.789-0.969c-0.532,0-0.788,0.361-0.788,0.969V299.951z"/>
					<path style="fill:#2C1F23;" d="M415.742,265.198c-0.247,0.152-0.57,0.266-0.922,0.285v-0.608
						c0.722-0.029,0.969-0.418,1.14-0.883h0.513v6.649h-0.731V265.198z"/>
					<path style="fill:#2C1F23;" d="M397.65,278.941c0,2.004-2.251,2.726-2.261,4.255v0.104h2.185v0.674h-2.916v-0.57
						c0-2.146,2.251-2.565,2.251-4.436c0-0.684-0.228-1.045-0.779-1.045c-0.541,0-0.779,0.389-0.779,0.978v0.589h-0.694v-0.541
						c0-1.016,0.466-1.691,1.491-1.691C397.185,277.26,397.65,277.925,397.65,278.941z"/>
					<path style="fill:#2C1F23;" d="M384.164,304.642v0.171c0,0.684-0.275,1.168-0.807,1.367c0.56,0.209,0.807,0.712,0.807,1.378
						v0.513c0,1.016-0.475,1.681-1.5,1.681c-1.017,0-1.492-0.665-1.492-1.681v-0.456h0.693v0.504c0,0.598,0.247,0.959,0.779,0.959
						c0.541,0,0.779-0.351,0.779-1.026v-0.513c0-0.655-0.276-0.968-0.836-0.988h-0.399v-0.664h0.437
						c0.494-0.019,0.798-0.332,0.798-0.913v-0.303c0-0.685-0.238-1.036-0.779-1.036c-0.532,0-0.779,0.371-0.779,0.969v0.342h-0.693
						v-0.304c0-1.016,0.475-1.672,1.492-1.672C383.689,302.97,384.164,303.626,384.164,304.642z"/>
					<path style="fill:#2C1F23;" d="M385.853,333.877v1.34h-0.722v-1.34h-2.147v-0.674l2.061-4.635h0.807v4.635h0.532v0.674H385.853
						z M383.668,333.203h1.463v-3.248L383.668,333.203z"/>
					<path style="fill:#2C1F23;" d="M401.047,353.717c0.209-0.36,0.541-0.551,0.988-0.551c0.855,0,1.235,0.627,1.235,1.577v1.301
						c0,1.016-0.484,1.681-1.501,1.681s-1.491-0.665-1.491-1.681v-0.446h0.693v0.494c0,0.598,0.247,0.959,0.779,0.959
						c0.532,0,0.779-0.361,0.779-0.959V354.8c0-0.598-0.247-0.959-0.779-0.959c-0.408,0-0.684,0.228-0.75,0.712v0.152h-0.694
						l0.181-3.695h2.621v0.665h-1.956L401.047,353.717z"/>
					<path style="fill:#2C1F23;" d="M427.06,364.007v0.124h-0.693v-0.171c0-0.599-0.247-0.95-0.788-0.95
						c-0.56,0-0.807,0.361-0.807,1.074v1.491c0.18-0.456,0.541-0.712,1.073-0.712c0.855,0,1.235,0.617,1.235,1.576v1.007
						c0,1.016-0.504,1.681-1.52,1.681c-1.026,0-1.529-0.665-1.529-1.681v-3.391c0-1.054,0.475-1.71,1.529-1.71
						C426.585,362.345,427.06,362.991,427.06,364.007z M424.771,366.496v0.998c0,0.598,0.247,0.959,0.788,0.959
						c0.532,0,0.788-0.361,0.788-0.959v-0.998c0-0.599-0.256-0.959-0.788-0.959C425.018,365.537,424.771,365.897,424.771,366.496z"
						/>
					<path style="fill:#2C1F23;" d="M453.162,360.267h-2.261v-0.665h3.011v0.646l-1.71,6.003h-0.741L453.162,360.267z"/>
					<path style="fill:#2C1F23;" d="M476.306,344.035v0.209c0,0.674-0.238,1.169-0.76,1.367c0.551,0.219,0.76,0.741,0.76,1.406
						v0.494c0,1.026-0.532,1.662-1.567,1.662c-1.035,0-1.567-0.637-1.567-1.662v-0.494c0-0.674,0.209-1.178,0.77-1.406
						c-0.541-0.209-0.77-0.693-0.77-1.367v-0.209c0-1.026,0.542-1.644,1.567-1.644C475.765,342.392,476.306,343.009,476.306,344.035
						z M473.903,344.054v0.323c0,0.646,0.313,0.931,0.836,0.931c0.522,0,0.836-0.285,0.836-0.931v-0.323
						c0-0.684-0.314-0.997-0.836-0.997C474.217,343.057,473.903,343.37,473.903,344.054z M473.903,346.933v0.56
						c0,0.684,0.304,1.007,0.836,1.007c0.532,0,0.826-0.323,0.836-1.007v-0.56c0-0.647-0.285-0.96-0.836-0.96
						C474.188,345.973,473.903,346.286,473.903,346.933z"/>
					<path style="fill:#2C1F23;" d="M486.513,320.954v3.391c0,1.054-0.475,1.719-1.539,1.719c-1.016,0-1.501-0.655-1.501-1.672
						v-0.123h0.693v0.171c0,0.599,0.256,0.95,0.789,0.95c0.57,0,0.817-0.361,0.817-1.064v-1.491
						c-0.18,0.456-0.541,0.703-1.073,0.703c-0.855,0-1.235-0.608-1.235-1.567v-1.016c0-1.016,0.494-1.672,1.52-1.672
						C486.009,319.282,486.513,319.938,486.513,320.954z M484.195,320.917v0.997c0,0.599,0.256,0.959,0.789,0.959
						c0.541,0,0.788-0.36,0.788-0.959v-0.997c0-0.608-0.247-0.96-0.788-0.96C484.452,319.957,484.195,320.309,484.195,320.917z"/>
				</g>
			</g>
		</g>
		<g>
			<g>
				<path style="opacity:0.5;" d="M457.755,217.065l-1.425,8.095c0,0-8.626,3.172-10.581,3.197
					c-1.954,0.025-10.74,1.255-10.74,1.255s1.215,6.285,0.419,10.138c-0.796,3.852-7.317,33.17-7.317,33.17l-1.4,0.888v3.007
					c0,0,0.983,0.792,1.4,1.82c0.417,1.029,0.37,4.135,0.37,4.135s-1.804,0.269-4.246,0.604c-0.652,0.089-1.372-1.316-2.093-1.221
					c-4.929,0.649-10.924,2.836-10.924,2.319c0-0.875,1.203-2.319,1.203-2.319l7.145-1.225l1.679-51.315c0,0-7.02,0.572-7.3,1.612
					c-0.281,1.041,0.242,6.58,0.214,9.091c-0.025,2.225-2.941,29.924-2.941,29.924s-1.143,0.301-1.125,0.373
					c0.066,0.268-0.512,0.934-0.223,1.99c0.397,1.447,1.649,3.411,1.348,4.112c-0.522,1.212-3.463,1.347-3.463,1.347l-2.065-9.866
					l-0.855-21.131l-1.178-13.304l2.251-10.806l16.762-3.791l34.17-2.273"/>
				<g>
					<g>
						<path style="fill:#FEAF84;" d="M403.64,269.541c0,0-0.152,3.279,0.037,4.452c0.189,1.173,3.955,0.938,4.34,0.288
							c0.385-0.649,0.139-6.088,0.139-6.088"/>
						<path style="fill:#FBB800;" d="M409.061,275.442c0.057,1.233-0.037,3.556-0.037,3.556l-3.882,0.784l-0.465-0.672
							c0,0-1.109,0.878-2.307,1.148c-0.889,0.2-2.735,0.31-3.641,0.215c-3.17-0.332-5.326-1.404-5.418-1.873
							c-0.383-1.96,8.899-3.421,9.427-4.664c0.383-0.902,0.186-1.117,0.706-0.976c0,0,0.465,0.075,0.798,0.607
							c0.511,0.817,1.432,1.338,2.396,1.128c0.551-0.12,1.099-0.351,1.484-0.777C408.122,273.917,409.004,274.208,409.061,275.442z"
							/>
					</g>
					<g>
						<g>
							<path style="fill:#E72D27;" d="M436.927,225.27c-5.784-0.101-21.09,2.279-26.926,2.795c0.302,2.416,1.606,5.709,1.658,9.032
								c0.173,10.972-1.328,24.754-2.58,33.573c0,0-2.314,2.42-5.67-0.077c-2.61-14.922-6.339-44.829-4.953-50.846
								c1.764-7.66,25.132-13.711,39.595-12.586"/>
						</g>
					</g>
					<g style="opacity:0.35;">
						<path style="fill:#5275A0;" d="M438.051,207.161c-10.216-0.795-24.866,1.994-33.216,6.398
							c1.764,0.859,3.515,1.776,4.966,3.089c1.647,1.491,2.886,3.586,2.831,5.807c-0.046,1.826-0.14,3.691-0.685,5.41
							c6.76-0.753,19.751-2.686,24.98-2.594L438.051,207.161z"/>
					</g>
					<g>
						<path style="fill:#FEAF84;" d="M417.979,274.116c0,0-0.029,3.283,0.203,4.448c0.232,1.165,3.987,0.79,4.348,0.126
							c0.36-0.663-0.089-6.089-0.089-6.089"/>
						<path style="fill:#FBB800;" d="M423.616,279.81c0.102,1.231,0.096,3.555,0.096,3.555l-3.85,0.928l-0.49-0.654
							c0,0-1.076,0.919-2.262,1.233c-0.881,0.233-2.721,0.411-3.63,0.351c-3.18-0.213-5.374-1.204-5.484-1.67
							c-0.456-1.944,8.765-3.75,9.246-5.012c0.349-0.916,0.144-1.124,0.669-1.001c0,0,0.468,0.057,0.82,0.577
							c0.541,0.798,1.481,1.284,2.437,1.038c0.546-0.141,1.085-0.392,1.453-0.832C422.621,278.322,423.513,278.58,423.616,279.81z"
							/>
					</g>
					<g>
						<path style="fill:#E72D27;" d="M459.574,207.927c1.513,3.521,2.507,9.886,0.989,12.611c-1.332,2.39-1.962,3.868-4.234,4.621
							c-9.7,3.215-18.125,2.588-29.075,1.92c4.52,12.215-2.521,36.93-3.542,48.021c-4.104,1.821-6.425-0.116-6.425-0.116
							c0.466-22.577-4.566-54.111-1.52-59.506c1.851-3.28,23.948-7.609,24.388-7.551"/>
					</g>
				</g>
				<g>
					<path style="fill:#FEAF84;" d="M381.642,177.474l-2.654-0.155c-0.435-0.006-0.869,0.072-1.266,0.25
						c-0.442,0.198-1.175,0.483-2.239,0.766c-1.915,0.508-3.77-0.143-5.012-0.356c-1.242-0.214-0.21-1.367,1.626-1.476
						c1.836-0.11,0.842,0.259,1.73-0.287c0.887-0.546-0.829-1.356-2.212-1.863c-1.292-0.474-1.201-0.546-2.549-1.175
						c-1.349-0.629-2.53-1.035-3.313-1.48c-0.545-0.31-1.016-0.847-0.381-1c0.658-0.158,4.371,0.839,5.199,0.892
						c0.828,0.053,1.287-1.174,3.498-1.191c2.212-0.018,4.412,2.34,5.433,2.91c1.021,0.57,4.969,0.26,4.969,0.26"/>
					<path style="fill:#F35431;" d="M434.517,155.632c0,0-5.252,0-8.506,2.28c-1.834,1.286-17.706,11.665-19.68,12.725
						c-1.973,1.06-26.353,2.469-26.353,2.469s-1.268,1.207-1.268,2.818c0,1.729,0.537,3.241,0.537,3.241s24.102,2.239,29.174,1.194
						c5.072-1.045,25.391-9.723,25.391-9.723"/>
					<path style="fill:#FF7C48;" d="M459.689,208.097c-2.617,6.361-16.601,4.061-24.048,4.333c-6.669,0.243-8.32-2.05-8.32-2.05
						c0.252-9.527,1.814-16.595,0.318-23.537c-2.544-11.806-3.999-26.262-1.627-28.93c4.653-3.557,17.029-6.156,26.737-3.136
						c7.293,2.263,9.598,4.401,9.156,9.883C461.757,166.482,456.849,200.29,459.689,208.097z"/>
					<g>
						<polygon style="fill:#8FCAF2;" points="449.203,209.704 413.945,206.942 434.405,216.239 						"/>
						<polygon style="fill:#B1DAFC;" points="434.271,217.065 449.003,210.942 449.203,209.704 434.218,215.845 						"/>
					</g>
					<path style="fill:#FEAF84;" d="M432.407,204.401l-2.979,1.378c0,0-2.694-2.154-5.655-0.222
						c-2.961,1.932,0.013,8.181,2.139,7.724c2.127-0.457,8.521-4.539,8.521-4.539L432.407,204.401z"/>
					<path style="fill:#F35431;" d="M432.915,210.379c0,0-1.61-0.503-2.189-3.116c-0.227-1.025,0.241-2.962,0.241-2.962
						s8.313-4.945,14.2-9.431c2.675-2.038,5.603-3.966,8.652-5.313c-0.494-5.06-0.988-10.119-1.482-15.179
						c-0.262-2.687-0.936-6.181-0.57-8.856c0.492-3.596,1.857-9.393,6.219-8.668c7.791,1.295,5.945,17.746,5.668,23.754
						c-0.189,4.093,0.171,11.082-2.371,14.562C457.447,200.423,432.915,210.379,432.915,210.379z"/>
					<g>
						<path style="fill:#B1DAFC;" d="M434.271,217.065l-32.389-5.253c-1.082-0.175-1.893-1.087-1.94-2.182l-0.994-22.883
							c-0.053-1.229,1.035-2.196,2.249-1.999l30.335,4.919c0.908,0.147,1.588,0.912,1.628,1.831L434.271,217.065z"/>
					</g>
					<g>
						<g id="XMLID_30_">
							<path id="XMLID_34_" style="fill:#FEAF84;" d="M433.43,145.298c0.783,0.29-0.402,5.306,1.351,5.778
								c1.753,0.476,3.203,0.317,4.594,0.339c0.006,0.128-0.383,2.825-0.383,2.825l0.399,1.688h3.082l4.237-1.153
								c0,0,0.138-5.428,0.313-6.066c0.11-0.402,1.755-1.898,2.909-4.628c0.676-1.596,1.205-3.17,1.21-4.234
								c0.005-2.889-0.103-5.906-1.997-7.393c-1.891-1.483-13.902-6.824-14.232,1.999c0,0-1.498,6.123-2.089,7.682
								c-0.196,0.518-1.009,2.176-0.842,2.692C432.136,145.3,433.052,145.159,433.43,145.298z"/>
							<path id="XMLID_32_" style="fill:#F29D77;" d="M439.233,152.536c-0.054,0.639-0.511,1.861-0.511,1.861l0.669,1.367
								l3.082,0.164l4.237-1.153c0,0,0.138-5.428,0.313-6.066c0.11-0.402,1.755-1.898,2.909-4.628l-0.155-1.704
								c0,0-3.719-0.902-3.856-0.887c-0.136,0.01-0.171,7.336-0.287,9.387c-1.517,1.208-3.29,2.587-3.961,2.59
								C440.528,153.473,439.659,152.857,439.233,152.536z"/>
							<path id="XMLID_31_" d="M445.921,141.489c0,0-2.909,3.735-2.813-2.225c0.003-0.2-0.197-0.349-0.408-0.376
								c-0.786-0.098-2.604-0.712-2.496-4.311c0.009-0.3-0.252-0.548-0.572-0.537c-1.103,0.038-3.379,0.13-3.861,0.263
								c0,0-0.356,0.062-0.707,0.189c-0.114,0.042-0.479,1.589-0.538,1.779c-0.076,0.245-0.346,1.795-0.346,1.795
								s-1.002-0.309-1.007-0.95c-0.005-0.642,0.27-2.052,0.138-2.371c-0.132-0.319-1.11-0.548-1.272-1.289
								c-0.365-1.675-1.082-8.208,4.622-5.12c0.746,0.404,3.569,0.502,5.199,0.337c2.278-0.231,12.412,0.422,11.198,9.92
								c-0.72,5.637-1.627,7.499-3.127,8.607c-0.254,0.188-1.497,1.393-1.715,1.509c-0.661,0.352-1.228,0.184-1.228,0.184
								s-0.313-0.671-0.336-1.54C446.603,145.441,446.75,142.154,445.921,141.489z"/>
						</g>
						<path id="XMLID_3_" style="fill:#FEAF84;" d="M445.694,141.284c0,0,0.186-1.942,1.771-1.672
							c2.128,0.363,2.121,5.585-2.333,5.662C445.132,145.274,445.132,143.208,445.694,141.284z"/>
					</g>
					<path style="fill:#FFFFFF;" d="M447.277,151.247c0,0,1.036,1.114,1.926,2.678c0,0-0.884,1.004-2.124,1.647
						c-1.132,0.587-6.374,3.45-6.374,3.45l-1.315-3.258C439.391,155.763,444.75,152.747,447.277,151.247z"/>
					<path style="fill:#FFFFFF;" d="M439.391,155.763c-0.916,0.735-1.808,1.308-2.464,2.632c0,0-0.473-2.736,0.217-4.965
						c0,0,1.441-1.631,2.235-1.915C439.379,151.515,438.999,154.483,439.391,155.763z"/>
				</g>
			</g>
			<path style="fill:#E72D27;" d="M447.137,138.313c0.109-1.37,0.063-2.759-0.174-4.132c-0.328-1.688-1.165-3.403-2.619-4.435
				c-1.455-1.017-3.287-1.334-4.953-1.01c1.689-0.079,3.394,0.368,4.677,1.376c1.271,1.021,2.04,2.568,2.31,4.192
				c0.259,1.291,0.314,2.624,0.257,3.959c-0.086-0.005-0.168-0.026-0.255-0.026c-2.294,0-4.153,1.859-4.153,4.153
				c0,1.368,0.67,2.572,1.691,3.328c-1.046,1.327-2.935,2.749-6.143,2.707c-0.142-0.29-0.491-0.498-0.907-0.498
				c-0.54,0-0.978,0.348-0.978,0.776c0,0.429,0.438,0.776,0.978,0.776c0.39,0,0.721-0.185,0.878-0.447
				c0.065,0.001,0.136,0.008,0.2,0.008c3.395,0,5.374-1.57,6.48-3.007c0.585,0.314,1.243,0.509,1.954,0.509
				c2.294,0,4.153-1.859,4.153-4.153C450.533,140.355,449.068,138.669,447.137,138.313z"/>
		</g>
		<g>
			<path style="fill:#282228;" d="M608.811,404.655c-10.475,5.351-25.583,1.63-32.421-12.037l0,0
				c-22.917-41.975-60.532-118.49-60.532-118.49c-6.782-15.846-1.152-28.011,9.248-33.324l0,0l4.198-2.145h0l11.956-5.725
				c0.825,9.908,2.5,11.209,5.123,16.343l9.65,3.533c2.623,5.134,9.916,13.452,4.782,16.075l-9.154,4.677
				c-1.983,1.013-2.769,3.442-1.756,5.425l42.503,83.199c1.013,1.983,3.442,2.769,5.425,1.756l8.061-3.984
				c5.134-2.623,9.326,9.296,11.949,14.431l12.458,7.566c-3.403,4.118,0.363,11.346-4.771,13.969l-12.521,6.588l0,0L608.811,404.655
				L608.811,404.655z"/>
			<path style="fill:#0E60D8;" d="M627.677,383.944l-9.269-18.139c-2.629-5.142-8.909-7.172-14.049-4.555l-9.148,4.679
				c-1.985,1.017-4.411,0.227-5.428-1.758l-42.507-83.197c-1.006-1.984-0.227-4.411,1.758-5.428l1.052-0.534
				c-0.738,1.166-0.855,2.662-0.178,3.967l42.505,83.207c1.006,1.984,3.434,2.762,5.417,1.756l7.469-3.682
				c5.131-2.63,5.196,2.595,7.815,7.725l9.829,6.336"/>
			
				<ellipse transform="matrix(0.8729 -0.488 0.488 0.8729 -106.3001 348.3331)" style="fill:#0E60D8;" cx="615.303" cy="378.157" rx="14.094" ry="20.501"/>
			<path style="fill:#282228;" d="M625.308,396.053c-0.12,0.06-0.23,0.13-0.35,0.18c6.54-3.94,7.46-14.86,2.02-24.6
				c-5.44-9.72-15.17-14.65-21.96-11.2c0.09-0.06,0.19-0.12,0.28-0.17c6.79-3.8,16.78,1.13,22.31,11.02
				C633.128,381.164,632.098,392.254,625.308,396.053z"/>
			
				<ellipse transform="matrix(0.8729 -0.488 0.488 0.8729 -52.5971 300.5601)" style="fill:#0E60D8;" cx="550.477" cy="251.214" rx="13.036" ry="20.501"/>
			<path style="fill:#282228;" d="M560.478,269.113c-0.1,0.06-0.2,0.11-0.31,0.16c6.15-3.6,6.7-14.36,1.23-24.16
				c-5.46-9.76-14.85-14.91-21.13-11.67c0.06-0.04,0.13-0.08,0.2-0.12c6.29-3.52,15.86,1.65,21.39,11.53
				C567.378,254.734,566.768,265.594,560.478,269.113z"/>
		</g>
		<g>
			<path style="fill:#9DDBF4;" d="M323.631,117.1h-1.792v-1.792c0-0.289-0.234-0.524-0.524-0.524c-0.29,0-0.524,0.234-0.524,0.524
				v1.792H319c-0.29,0-0.524,0.235-0.524,0.524s0.234,0.524,0.524,0.524h1.792v1.792c0,0.289,0.234,0.524,0.524,0.524
				c0.29,0,0.524-0.235,0.524-0.524v-1.792h1.792c0.289,0,0.524-0.234,0.524-0.524S323.92,117.1,323.631,117.1z"/>
			<path style="fill:#9DDBF4;" d="M314.383,258.428h-1.792v-1.792c0-0.289-0.234-0.524-0.524-0.524c-0.29,0-0.524,0.234-0.524,0.524
				v1.792h-1.792c-0.29,0-0.524,0.235-0.524,0.524c0,0.289,0.234,0.524,0.524,0.524h1.792v1.792c0,0.289,0.234,0.524,0.524,0.524
				c0.29,0,0.524-0.235,0.524-0.524v-1.792h1.792c0.289,0,0.524-0.234,0.524-0.524C314.906,258.663,314.672,258.428,314.383,258.428
				z"/>
			<path style="fill:#9DDBF4;" d="M611.739,196.797h-1.791v-1.792c0-0.289-0.234-0.524-0.524-0.524s-0.524,0.234-0.524,0.524v1.792
				h-1.792c-0.29,0-0.524,0.235-0.524,0.524c0,0.289,0.234,0.524,0.524,0.524h1.792v1.792c0,0.289,0.234,0.524,0.524,0.524
				s0.524-0.235,0.524-0.524v-1.792h1.791c0.29,0,0.524-0.234,0.524-0.524C612.263,197.031,612.029,196.797,611.739,196.797z"/>
			<path style="fill:#9DDBF4;" d="M143.593,139.389h-1.791v-1.792c0-0.289-0.234-0.524-0.524-0.524c-0.29,0-0.524,0.234-0.524,0.524
				v1.792h-1.792c-0.29,0-0.524,0.235-0.524,0.524s0.234,0.524,0.524,0.524h1.792v1.792c0,0.289,0.234,0.524,0.524,0.524
				c0.29,0,0.524-0.235,0.524-0.524v-1.792h1.791c0.29,0,0.524-0.234,0.524-0.524S143.883,139.389,143.593,139.389z"/>
			<path style="fill:#9DDBF4;" d="M523.837,173.335h-1.792v-1.792c0-0.289-0.234-0.524-0.524-0.524s-0.524,0.235-0.524,0.524v1.792
				h-1.792c-0.29,0-0.524,0.235-0.524,0.524c0,0.289,0.234,0.524,0.524,0.524h1.792v1.791c0,0.289,0.234,0.524,0.524,0.524
				s0.524-0.235,0.524-0.524v-1.791h1.792c0.289,0,0.524-0.235,0.524-0.524C524.361,173.57,524.127,173.335,523.837,173.335z"/>
			<path style="fill:none;stroke:#9DDBF4;stroke-miterlimit:10;" d="M392.246,155.823c0,1.023-0.83,1.853-1.853,1.853
				c-1.023,0-1.853-0.83-1.853-1.853c0-1.023,0.83-1.853,1.853-1.853C391.416,153.97,392.246,154.799,392.246,155.823z"/>
			<path style="fill:none;stroke:#9DDBF4;stroke-miterlimit:10;" d="M554.869,110.539c0,1.023-0.83,1.853-1.853,1.853
				c-1.023,0-1.853-0.83-1.853-1.853c0-1.023,0.83-1.853,1.853-1.853C554.04,108.686,554.869,109.516,554.869,110.539z"/>
			<path style="fill:none;stroke:#9DDBF4;stroke-miterlimit:10;" d="M633.012,270.532c0,1.023-0.83,1.853-1.853,1.853
				c-1.023,0-1.853-0.83-1.853-1.853c0-1.023,0.83-1.853,1.853-1.853C632.182,268.679,633.012,269.509,633.012,270.532z"/>
			<path style="fill:none;stroke:#9DDBF4;stroke-miterlimit:10;" d="M252.625,179.415c0,1.023-0.83,1.853-1.853,1.853
				c-1.023,0-1.853-0.83-1.853-1.853c0-1.023,0.83-1.853,1.853-1.853C251.796,177.562,252.625,178.392,252.625,179.415z"/>
			<path style="fill:none;stroke:#9DDBF4;stroke-miterlimit:10;" d="M102.847,221.33c0,1.023-0.83,1.853-1.853,1.853
				c-1.023,0-1.853-0.83-1.853-1.853c0-1.023,0.83-1.853,1.853-1.853C102.017,219.477,102.847,220.306,102.847,221.33z"/>
		</g>
		<g>
			<g>
				<path style="fill:#FEC752;" d="M526.654,129.455h-66.746c-1.903,0-3.445-1.542-3.445-3.445V96.765
					c0-1.903,1.542-3.445,3.445-3.445h66.746c1.903,0,3.445,1.542,3.445,3.445v29.245
					C530.099,127.912,528.557,129.455,526.654,129.455z"/>
				<g>
					<g style="opacity:0.66;">
						
							<line style="fill:none;stroke:#EAA221;stroke-width:1.9087;stroke-linecap:round;stroke-linejoin:round;stroke-miterlimit:10;" x1="521.594" y1="118.722" x2="506.3" y2="118.722"/>
						
							<line style="fill:none;stroke:#EAA221;stroke-width:1.9087;stroke-linecap:round;stroke-linejoin:round;stroke-miterlimit:10;" x1="475.75" y1="113.274" x2="465.399" y2="113.274"/>
						
							<line style="fill:none;stroke:#EAA221;stroke-width:1.9087;stroke-linecap:round;stroke-linejoin:round;stroke-miterlimit:10;" x1="521.594" y1="113.274" x2="480.236" y2="113.274"/>
						
							<line style="fill:none;stroke:#EAA221;stroke-width:1.9087;stroke-linecap:round;stroke-linejoin:round;stroke-miterlimit:10;" x1="521.594" y1="107.826" x2="465.399" y2="107.826"/>
						
							<line style="fill:none;stroke:#EAA221;stroke-width:1.9087;stroke-linecap:round;stroke-linejoin:round;stroke-miterlimit:10;" x1="482.727" y1="102.377" x2="465.399" y2="102.377"/>
						
							<line style="fill:none;stroke:#EAA221;stroke-width:1.9087;stroke-linecap:round;stroke-linejoin:round;stroke-miterlimit:10;" x1="521.594" y1="102.377" x2="487.04" y2="102.377"/>
						
							<line style="fill:none;stroke:#EAA221;stroke-width:1.9087;stroke-linecap:round;stroke-linejoin:round;stroke-miterlimit:10;" x1="501.832" y1="118.722" x2="465.399" y2="118.722"/>
					</g>
				</g>
			</g>
			<polygon style="fill:#FEC752;" points="468.752,129.455 462.047,137.609 462.047,129.455 			"/>
		</g>
	</g>
</g>
<g id="DESIGNED_BY_FREEPIK">
	<g>
		<g id="XMLID_1_">
			<g id="XMLID_20_">
				<path id="XMLID_28_" style="fill:#A5B7C6;" d="M385.104,472.811c-0.432,0.443-0.803,0.931-1.108,1.453l-0.465-0.241
					c-0.067-0.298-0.349-0.503-0.659-0.466c-0.331,0.039-0.567,0.339-0.529,0.67c0.039,0.331,0.339,0.568,0.67,0.529
					c0.066-0.008,0.127-0.026,0.184-0.052l0.451,0.234c-0.251,0.554-0.433,1.139-0.539,1.744l0.747,0.132
					c0.23-1.306,0.85-2.507,1.792-3.473L385.104,472.811z"/>
				<path id="XMLID_27_" style="fill:#A5B7C6;" d="M390.592,470.509c-0.171,0-0.341,0.006-0.51,0.017l-0.074-0.626
					c0.188-0.149,0.296-0.389,0.266-0.645c-0.046-0.393-0.402-0.674-0.795-0.628c-0.393,0.046-0.674,0.402-0.628,0.795
					c0.03,0.254,0.189,0.461,0.404,0.564l0.074,0.624c-0.714,0.116-1.403,0.332-2.06,0.646l0.327,0.684
					c0.934-0.447,1.942-0.673,2.995-0.673c0.496,0,0.993,0.053,1.475,0.158l0.161-0.741
					C391.692,470.568,391.142,470.509,390.592,470.509z"/>
				<path id="XMLID_26_" style="fill:#A5B7C6;" d="M397.194,473.056c0.331-0.041,0.566-0.342,0.526-0.672
					c-0.04-0.331-0.341-0.566-0.672-0.526c-0.309,0.038-0.535,0.304-0.53,0.609l-0.416,0.363c-0.418-0.43-0.889-0.813-1.408-1.139
					l-0.404,0.641c1.134,0.715,2.021,1.726,2.563,2.925l0.69-0.313c-0.251-0.554-0.567-1.072-0.942-1.545l0.402-0.351
					C397.065,473.061,397.129,473.064,397.194,473.056z"/>
				<path id="XMLID_25_" style="fill:#A5B7C6;" d="M390.044,480.717c-0.386,0.023-0.775,0.035-1.157,0.035
					c-0.88,0-1.733-0.061-2.478-0.179c-0.39-0.062-0.846-0.155-1.27-0.292c1.046,1.861,3.069,3.125,5.388,3.125
					c2.855,0,5.262-1.916,5.95-4.504c-0.682,0.449-1.505,0.825-2.459,1.123C392.839,480.393,391.463,480.632,390.044,480.717z"/>
				<path id="XMLID_21_" style="fill:#A5B7C6;" d="M390.592,472.025c-3.352,0-6.08,2.666-6.08,5.944
					c0,0.426,0.046,0.849,0.137,1.261c0.673,0.483,2.706,0.89,5.348,0.731c2.879-0.173,5.297-0.957,6.672-2.159
					c-0.006-0.195-0.021-0.39-0.045-0.582C396.244,474.259,393.65,472.025,390.592,472.025z M388.432,478.54
					c-1.02,0-1.85-0.83-1.85-1.85c0-1.02,0.83-1.85,1.85-1.85c1.02,0,1.85,0.83,1.85,1.85
					C390.282,477.71,389.452,478.54,388.432,478.54z M393.17,477.632c-0.75,0-1.36-0.61-1.36-1.36c0-0.75,0.61-1.361,1.36-1.361
					c0.75,0,1.361,0.61,1.361,1.361C394.53,477.022,393.92,477.632,393.17,477.632z"/>
			</g>
			<path id="XMLID_18_" style="fill:#A5B7C6;" d="M406.595,473.892c-0.295-0.116-0.805-0.309-1.382-0.237
				c-0.551,0.069-0.844,0.341-0.844,1.007v0.866h2.228v1.717h-2.228v5.455h-1.932v-5.455h-1.34v-1.717h1.34v-0.888
				c0-1.68,0.896-2.783,2.568-2.783c0.643,0,1.157,0.122,1.59,0.308L406.595,473.892z"/>
			<path id="XMLID_16_" style="fill:#A5B7C6;" d="M411.298,477.224c-0.177-0.03-0.358-0.046-0.526-0.046
				c-0.896,0-1.51,0.548-1.51,1.613v3.908h-1.932v-7.172h1.873v0.785c0.451-0.673,1.14-0.977,2.021-0.977
				c0.414,0,0.848,0.127,1.094,0.337L411.298,477.224z"/>
			<path id="XMLID_13_" style="fill:#A5B7C6;" d="M418.965,479.102c0,0.222-0.015,0.489-0.037,0.651h-5.085
				c0.207,1.036,0.933,1.488,1.843,1.488c0.622,0,1.295-0.252,1.813-0.688l1.133,1.243c-0.814,0.748-1.85,1.088-3.057,1.088
				c-2.198,0-3.723-1.495-3.723-3.753c0-2.258,1.48-3.797,3.627-3.797C417.544,475.335,418.958,476.867,418.965,479.102z
				 M413.851,478.436h3.175c-0.177-0.918-0.733-1.436-1.562-1.436C414.554,477,414.021,477.548,413.851,478.436z"/>
			<path id="XMLID_10_" style="fill:#A5B7C6;" d="M426.618,479.102c0,0.222-0.015,0.489-0.037,0.651h-5.085
				c0.207,1.036,0.933,1.488,1.843,1.488c0.622,0,1.295-0.252,1.814-0.688l1.132,1.243c-0.814,0.748-1.85,1.088-3.057,1.088
				c-2.198,0-3.723-1.495-3.723-3.753c0-2.258,1.48-3.797,3.627-3.797C425.197,475.335,426.611,476.867,426.618,479.102z
				 M421.504,478.436h3.175c-0.178-0.918-0.733-1.436-1.562-1.436C422.207,477,421.674,477.548,421.504,478.436z"/>
			<path id="XMLID_7_" style="fill:#A5B7C6;" d="M434.964,479.11c0,2.154-1.495,3.775-3.471,3.775c-0.962,0-1.643-0.378-2.109-0.933
				v3.708h-1.924v-10.133h1.887v0.792c0.466-0.585,1.155-0.984,2.139-0.984C433.469,475.335,434.964,476.956,434.964,479.11z
				 M429.287,479.11c0,1.132,0.748,1.976,1.843,1.976c1.14,0,1.85-0.881,1.85-1.976c0-1.095-0.71-1.976-1.85-1.976
				C430.035,477.134,429.287,477.977,429.287,479.11z"/>
			<path id="XMLID_4_" style="fill:#A5B7C6;" d="M438.068,473.181c0,0.696-0.54,1.229-1.236,1.229c-0.696,0-1.229-0.533-1.229-1.229
				c0-0.696,0.533-1.243,1.229-1.243C437.527,471.938,438.068,472.486,438.068,473.181z M437.809,482.699h-1.932v-7.172h1.932
				V482.699z"/>
			<path id="XMLID_2_" style="fill:#A5B7C6;" d="M442.62,478.9l3.48-3.37h-2.37l-2.7,2.55v-6.04h-1.93v10.66h1.93v-2.9l2.72,2.9
				h2.37L442.62,478.9z"/>
		</g>
		<g>
			<path style="fill:#A5B7C6;" d="M309.412,482.634v-1.055c-0.527,0.718-1.391,1.23-2.387,1.23c-1.846,0-3.149-1.406-3.149-3.706
				c0-2.256,1.289-3.721,3.149-3.721c0.952,0,1.816,0.469,2.387,1.245v-3.765h1.099v9.77H309.412z M309.412,480.716v-3.208
				c-0.395-0.615-1.245-1.143-2.124-1.143c-1.421,0-2.27,1.172-2.27,2.739c0,1.567,0.85,2.724,2.27,2.724
				C308.168,481.829,309.017,481.331,309.412,480.716z"/>
			<path style="fill:#A5B7C6;" d="M311.932,479.09c0-2.051,1.465-3.706,3.486-3.706c2.139,0,3.398,1.67,3.398,3.794v0.279h-5.727
				c0.088,1.333,1.025,2.446,2.549,2.446c0.805,0,1.626-0.322,2.182-0.893l0.527,0.718c-0.703,0.703-1.655,1.084-2.812,1.084
				C313.44,482.81,311.932,481.302,311.932,479.09z M315.404,476.292c-1.509,0-2.256,1.274-2.314,2.358h4.643
				C317.718,477.596,317.015,476.292,315.404,476.292z"/>
			<path style="fill:#A5B7C6;" d="M319.607,481.697l0.571-0.791c0.469,0.542,1.362,1.011,2.329,1.011c1.084,0,1.67-0.513,1.67-1.216
				c0-1.714-4.38-0.659-4.38-3.281c0-1.098,0.952-2.036,2.636-2.036c1.201,0,2.051,0.454,2.622,1.025l-0.513,0.762
				c-0.424-0.513-1.201-0.894-2.109-0.894c-0.967,0-1.567,0.483-1.567,1.113c0,1.553,4.38,0.527,4.38,3.281
				c0,1.187-0.952,2.138-2.783,2.138C321.306,482.81,320.325,482.459,319.607,481.697z"/>
			<path style="fill:#A5B7C6;" d="M326.477,473.817c0-0.41,0.337-0.747,0.732-0.747c0.41,0,0.747,0.337,0.747,0.747
				c0,0.41-0.337,0.732-0.747,0.732C326.814,474.549,326.477,474.227,326.477,473.817z M326.667,482.634v-7.075h1.099v7.075H326.667
				z"/>
			<path style="fill:#A5B7C6;" d="M329.582,484.451l0.556-0.82c0.586,0.703,1.289,0.967,2.3,0.967c1.172,0,2.27-0.571,2.27-2.124
				v-1.011c-0.513,0.718-1.377,1.26-2.373,1.26c-1.845,0-3.149-1.377-3.149-3.662c0-2.27,1.289-3.676,3.149-3.676
				c0.952,0,1.802,0.469,2.373,1.245v-1.069h1.098v6.87c0,2.344-1.641,3.076-3.369,3.076
				C331.237,485.506,330.417,485.271,329.582,484.451z M334.709,480.599v-3.091c-0.381-0.615-1.231-1.143-2.109-1.143
				c-1.421,0-2.27,1.128-2.27,2.695c0,1.553,0.849,2.695,2.27,2.695C333.478,481.756,334.328,481.214,334.709,480.599z"/>
			<path style="fill:#A5B7C6;" d="M342.413,482.634v-4.629c0-1.245-0.63-1.641-1.582-1.641c-0.865,0-1.685,0.527-2.095,1.099v5.17
				h-1.099v-7.075h1.099v1.025c0.498-0.586,1.465-1.201,2.519-1.201c1.48,0,2.256,0.747,2.256,2.285v4.966H342.413z"/>
			<path style="fill:#A5B7C6;" d="M344.932,479.09c0-2.051,1.465-3.706,3.486-3.706c2.138,0,3.398,1.67,3.398,3.794v0.279h-5.727
				c0.088,1.333,1.025,2.446,2.549,2.446c0.806,0,1.626-0.322,2.183-0.893l0.527,0.718c-0.703,0.703-1.655,1.084-2.812,1.084
				C346.441,482.81,344.932,481.302,344.932,479.09z M348.404,476.292c-1.509,0-2.256,1.274-2.314,2.358h4.643
				C350.718,477.596,350.015,476.292,348.404,476.292z"/>
			<path style="fill:#A5B7C6;" d="M358.35,482.634v-1.055c-0.527,0.718-1.392,1.23-2.388,1.23c-1.845,0-3.149-1.406-3.149-3.706
				c0-2.256,1.289-3.721,3.149-3.721c0.952,0,1.817,0.469,2.388,1.245v-3.765h1.098v9.77H358.35z M358.35,480.716v-3.208
				c-0.396-0.615-1.245-1.143-2.124-1.143c-1.421,0-2.27,1.172-2.27,2.739c0,1.567,0.849,2.724,2.27,2.724
				C357.105,481.829,357.954,481.331,358.35,480.716z"/>
			<path style="fill:#A5B7C6;" d="M364.692,482.634v-9.77h1.098v3.765c0.572-0.776,1.421-1.245,2.388-1.245
				c1.845,0,3.149,1.465,3.149,3.721c0,2.299-1.304,3.706-3.149,3.706c-0.996,0-1.86-0.513-2.388-1.23v1.055H364.692z
				 M367.9,481.829c1.436,0,2.286-1.157,2.286-2.724c0-1.568-0.85-2.739-2.286-2.739c-0.864,0-1.728,0.527-2.109,1.143v3.208
				C366.172,481.331,367.036,481.829,367.9,481.829z"/>
			<path style="fill:#A5B7C6;" d="M372.529,484.407c0.161,0.073,0.425,0.117,0.601,0.117c0.483,0,0.806-0.161,1.055-0.747
				l0.469-1.069l-2.959-7.148h1.187l2.358,5.801l2.344-5.801h1.201l-3.545,8.51c-0.425,1.025-1.143,1.421-2.08,1.435
				c-0.234,0-0.601-0.044-0.806-0.103L372.529,484.407z"/>
		</g>
	</g>
</g>
</svg>
